<svg id="Layer_1" data-name="Layer 1" xmlns="http://www.w3.org/2000/svg" viewBox="0 0 862.84 147.84"><defs><style>.cls-1,.cls-2{fill:none;stroke-miterlimit:10;stroke-width:0.29px;}.cls-1{stroke:#fd0;}.cls-2{stroke:#171614;}.cls-3{fill:#241f0c;}.cls-4{fill:#fff;}.cls-5{fill:#e63329;}.cls-6{fill:#fd0;}.cls-7{fill:#1d1d1b;}.cls-8{fill:#1d1e1c;}</style></defs><title>CE_Master_Logo_RGB</title><path class="cls-1" d="M113.75,75.55A65.15,65.15,0,0,1,111,92.39a41.61,41.61,0,0,1-6.41,12.7c-5.12,6.76-11.34,10.14-15.45,12.38-.36.19-2.8,1.44-14.54,7.29V75.55h39.12"/><path class="cls-1" d="M44.64,75.55v49.2c-11.73-5.85-14.18-7.09-14.54-7.29-4.11-2.24-10.33-5.62-15.45-12.38a41.58,41.58,0,0,1-6.41-12.7A65,65,0,0,1,5.52,75.55H44.64"/><path class="cls-2" d="M113.83,5.44H74.63V45.56h39.19V5.44Z"/><path class="cls-2" d="M44.64,5.44H5.44V45.56H44.64V5.44Z"/><path class="cls-3" d="M59.64,138.34l-1.19-.63c-1.76-.88-29.31-14.57-30.95-15.46C18.57,117.4,0,107.3,0,71.93V0H119.27V71.93c0,35.37-18.57,45.46-27.5,50.31-1.64.89-29.36,14.67-30.95,15.46Z"/><path class="cls-4" d="M71.77,48.42V2.58H47.5V48.42H2.58V71.93h0c0,.25,0,.5,0,.75H47.5v56.69l12.13,6h0l12.13-6V72.69h44.92c0-.25,0-.5,0-.75V48.42Z"/><rect class="cls-5" x="2.58" y="2.58" width="44.92" height="45.84"/><rect class="cls-5" x="71.77" y="2.58" width="44.92" height="45.84"/><path class="cls-5" d="M47.5,72.69H2.58c.26,32.86,17.11,42.38,26.15,47.3.92.5,10.51,5.29,18.77,9.4Z"/><path class="cls-5" d="M71.77,72.69v56.69c8.26-4.11,17.85-8.9,18.77-9.4,9-4.91,25.89-14.43,26.15-47.3Z"/><path class="cls-3" d="M87.2,60.91l.93-1.1L87,58.42l-1.17,1.39.93,1.1c0,.56,0,5.42-2.82,7.16A6.51,6.51,0,0,0,86.13,68,14.29,14.29,0,0,0,87,70.71,14.4,14.4,0,0,0,87.78,68a6.51,6.51,0,0,0,2.24.06C87.15,66.33,87.19,61.47,87.2,60.91Z"/><path class="cls-3" d="M94.52,52.65l.93-1.1-1.17-1.39L93.1,51.55l.93,1.1c0,.56,0,5.42-2.82,7.15a6.51,6.51,0,0,0,2.24-.06,14.31,14.31,0,0,0,.82,2.71,14.42,14.42,0,0,0,.82-2.71,6.51,6.51,0,0,0,2.24.06C94.47,58.07,94.5,53.21,94.52,52.65Z"/><path class="cls-3" d="M101.83,60.91l.93-1.1-1.17-1.39-1.17,1.39.93,1.1c0,.56,0,5.42-2.82,7.16a6.51,6.51,0,0,0,2.24-.06,14.29,14.29,0,0,0,.82,2.71,14.4,14.4,0,0,0,.82-2.71,6.51,6.51,0,0,0,2.24.06C101.78,66.33,101.82,61.47,101.83,60.91Z"/><path class="cls-3" d="M109.15,52.65l.93-1.1-1.17-1.39-1.17,1.39.93,1.1c0,.56,0,5.42-2.82,7.15a6.51,6.51,0,0,0,2.24-.06,14.37,14.37,0,0,0,.82,2.71,14.37,14.37,0,0,0,.82-2.71,6.51,6.51,0,0,0,2.24.06C109.1,58.07,109.13,53.21,109.15,52.65Z"/><path class="cls-3" d="M79.88,52.65l.93-1.1-1.17-1.39-1.17,1.39.93,1.1c0,.56,0,5.42-2.82,7.15a6.51,6.51,0,0,0,2.24-.06,14.32,14.32,0,0,0,.82,2.71,14.37,14.37,0,0,0,.82-2.71,6.51,6.51,0,0,0,2.24.06C79.84,58.07,79.87,53.21,79.88,52.65Z"/><path class="cls-3" d="M17.93,60.91l.93-1.1-1.17-1.39-1.17,1.39.93,1.1c0,.56,0,5.42-2.82,7.16A6.51,6.51,0,0,0,16.86,68a14.39,14.39,0,0,0,.82,2.71A14.45,14.45,0,0,0,18.51,68a6.51,6.51,0,0,0,2.24.06C17.88,66.33,17.91,61.47,17.93,60.91Z"/><path class="cls-3" d="M25.24,52.65l.93-1.1L25,50.16l-1.17,1.39.93,1.1c0,.56,0,5.42-2.82,7.15a6.52,6.52,0,0,0,2.24-.06A14.35,14.35,0,0,0,25,62.46a14.37,14.37,0,0,0,.82-2.71,6.51,6.51,0,0,0,2.24.06C25.19,58.07,25.23,53.21,25.24,52.65Z"/><path class="cls-3" d="M32.56,60.91l.93-1.1-1.17-1.39-1.17,1.39.93,1.1c0,.56,0,5.42-2.82,7.16A6.5,6.5,0,0,0,31.49,68a14.35,14.35,0,0,0,.82,2.71A14.4,14.4,0,0,0,33.14,68a6.51,6.51,0,0,0,2.24.06C32.51,66.33,32.55,61.47,32.56,60.91Z"/><path class="cls-3" d="M39.87,52.65l.93-1.1-1.17-1.39-1.17,1.39.93,1.1c0,.56,0,5.42-2.82,7.15a6.51,6.51,0,0,0,2.24-.06,14.47,14.47,0,0,0,.82,2.71,14.42,14.42,0,0,0,.82-2.71,6.51,6.51,0,0,0,2.24.06C39.83,58.07,39.86,53.21,39.87,52.65Z"/><path class="cls-3" d="M10.61,52.65l.93-1.1-1.17-1.39L9.2,51.55l.93,1.1c0,.56,0,5.42-2.82,7.15a6.51,6.51,0,0,0,2.24-.06,14.41,14.41,0,0,0,.82,2.71,14.32,14.32,0,0,0,.82-2.71,6.51,6.51,0,0,0,2.24.06C10.56,58.07,10.6,53.21,10.61,52.65Z"/><path class="cls-3" d="M59.94,79.53l.93-1.1L59.69,77l-1.17,1.39.93,1.1c0,.56,0,5.42-2.82,7.15a6.49,6.49,0,0,0,2.24-.06,14.42,14.42,0,0,0,.82,2.71,14.43,14.43,0,0,0,.82-2.71,6.49,6.49,0,0,0,2.24.06C59.89,84.95,59.92,80.08,59.94,79.53Z"/><path class="cls-3" d="M59.94,104.37l.93-1.1-1.17-1.39-1.17,1.39.93,1.1c0,.56,0,5.42-2.82,7.16a6.51,6.51,0,0,0,2.24-.06,14.41,14.41,0,0,0,.82,2.71,14.41,14.41,0,0,0,.82-2.71,6.52,6.52,0,0,0,2.24.06C59.89,109.79,59.92,104.92,59.94,104.37Z"/><path class="cls-3" d="M66.72,91.95l.93-1.1-1.17-1.39L65.3,90.85l.93,1.1c0,.56,0,5.42-2.82,7.16A6.52,6.52,0,0,0,65.65,99a14.36,14.36,0,0,0,.82,2.71A14.37,14.37,0,0,0,67.3,99a6.5,6.5,0,0,0,2.24.06C66.67,97.37,66.71,92.51,66.72,91.95Z"/><path class="cls-3" d="M53.08,91.95l.93-1.1-1.17-1.39-1.17,1.39.93,1.1c0,.56,0,5.42-2.82,7.16A6.51,6.51,0,0,0,52,99a14.42,14.42,0,0,0,.82,2.71A14.32,14.32,0,0,0,53.66,99a6.51,6.51,0,0,0,2.24.06C53,97.37,53.06,92.51,53.08,91.95Z"/><path class="cls-3" d="M66.72,116.79l.93-1.1-1.17-1.39-1.17,1.39.93,1.1c0,.56,0,5.42-2.82,7.16a6.52,6.52,0,0,0,2.24-.06,14.36,14.36,0,0,0,.82,2.71,14.37,14.37,0,0,0,.82-2.71,6.5,6.5,0,0,0,2.24.06C66.67,122.21,66.71,117.34,66.72,116.79Z"/><path class="cls-3" d="M53.08,116.79l.93-1.1-1.17-1.39-1.17,1.39.93,1.1c0,.56,0,5.42-2.82,7.16a6.51,6.51,0,0,0,2.24-.06,14.42,14.42,0,0,0,.82,2.71,14.32,14.32,0,0,0,.82-2.71,6.51,6.51,0,0,0,2.24.06C53,122.21,53.06,117.34,53.08,116.79Z"/><path class="cls-3" d="M59.94,23l.93-1.1-1.17-1.39-1.17,1.39.93,1.1c0,.56,0,5.42-2.82,7.16a6.53,6.53,0,0,0,2.24-.06,14.4,14.4,0,0,0,.82,2.71,14.4,14.4,0,0,0,.82-2.71,6.54,6.54,0,0,0,2.24.06C59.89,28.38,59.92,23.51,59.94,23Z"/><path class="cls-3" d="M66.72,10.54l.93-1.1L66.48,8,65.3,9.44l.93,1.1c0,.56,0,5.42-2.82,7.16a6.52,6.52,0,0,0,2.24-.06,14.35,14.35,0,0,0,.82,2.71,14.36,14.36,0,0,0,.82-2.71,6.5,6.5,0,0,0,2.24.06C66.67,16,66.71,11.09,66.72,10.54Z"/><path class="cls-3" d="M53.08,10.54,54,9.44,52.83,8,51.66,9.44l.93,1.1c0,.56,0,5.42-2.82,7.16A6.51,6.51,0,0,0,52,17.63a14.41,14.41,0,0,0,.82,2.71,14.31,14.31,0,0,0,.82-2.71,6.51,6.51,0,0,0,2.24.06C53,16,53.06,11.09,53.08,10.54Z"/><path class="cls-3" d="M66.72,35.38l.93-1.1-1.17-1.39L65.3,34.28l.93,1.1c0,.56,0,5.42-2.82,7.16a6.54,6.54,0,0,0,2.24-.06,14.33,14.33,0,0,0,.82,2.71,14.34,14.34,0,0,0,.82-2.71,6.53,6.53,0,0,0,2.24.06C66.67,40.8,66.71,35.94,66.72,35.38Z"/><path class="cls-3" d="M53.08,35.38l.93-1.1-1.17-1.39-1.17,1.39.93,1.1c0,.56,0,5.42-2.82,7.16A6.53,6.53,0,0,0,52,42.47a14.38,14.38,0,0,0,.82,2.71,14.28,14.28,0,0,0,.82-2.71,6.53,6.53,0,0,0,2.24.06C53,40.8,53.06,35.94,53.08,35.38Z"/><path class="cls-3" d="M37.8,25.21l.15.57c.14.51.24.92.31,1.22.48,2.18.88,2.74,1.94,2.74a1.26,1.26,0,0,0,1.26-.84l.23-.76a.36.36,0,0,1,.36-.28c.41,0,.61.43.62,1.38a17,17,0,0,0,.27,1.86,9.65,9.65,0,0,1,.15,1.66A2.72,2.72,0,0,1,42.86,34a16.19,16.19,0,0,1,.23,2.33,4.82,4.82,0,0,1-.46,2.27A4.79,4.79,0,0,1,42.83,40a7.15,7.15,0,0,1-.12,1.27,9.4,9.4,0,0,0-.2,1.32,1.62,1.62,0,0,0,.09.51,1.77,1.77,0,0,1,.11.46c0,.11,0,.19-.11.19l-.76-.31L41,43a4,4,0,0,1-.87-.68c-.74.67-1,.76-2.89,1.29a2.62,2.62,0,0,0-.84.34,1.21,1.21,0,0,1-.51.26c-.33,0-.48-.53-.48-1.61a8.7,8.7,0,0,1,.23-2.12,4.34,4.34,0,0,0-1.36-.34l-.58.07h-.14c-.11,0-.2-.17-.2-.37a3,3,0,0,1,.23-.83l.38-.91a3.25,3.25,0,0,1,.91-1.1,2.45,2.45,0,0,1,1-.58l1.37-.26c.81-.16,1.3-.59,1.3-1.16s-.37-.92-1.19-1.21l-1.64-.57a8.81,8.81,0,0,1-1.49-.72c-.91-.54-1.06-.61-1.28-.61s-.52.25-.52.68a1.06,1.06,0,0,0,1.07,1.15,1,1,0,0,0,.38-.08,1.34,1.34,0,0,1,.39-.12c.17,0,.27.1.27.29V34l-.08.65a5.31,5.31,0,0,1-1.22,2.29l-.34.46a5.25,5.25,0,0,1-2.06,3,3.83,3.83,0,0,0-.42.3,5.3,5.3,0,0,0-.31.53,6.38,6.38,0,0,1-.76.92,7,7,0,0,1-1,.87,3.6,3.6,0,0,0-.76.69l-.38.65a.36.36,0,0,1-.31.19c-.34,0-.65-.35-.84-1-.14-.45-.26-.57-.55-.57a2.92,2.92,0,0,0-.66.12l-.53.07H23a6.13,6.13,0,0,0-2.09.39,1.07,1.07,0,0,1-.39.12c-.1,0-.15,0-.25-.23a.55.55,0,0,1-.08-.31,7.23,7.23,0,0,1,1.15-3,4.06,4.06,0,0,1,1-1.22,1.71,1.71,0,0,0-1.06-1.29l-.65-.19a.2.2,0,0,1-.15-.18c0-.2.31-.47.88-.77a4.73,4.73,0,0,1,2.09-.61,3.12,3.12,0,0,1,1.94.8c1,.81,1.31,1,1.81,1a1.65,1.65,0,0,0,1.59-1.53,3.54,3.54,0,0,0-1-2C26.72,32.71,26.4,32,26.4,31a3.88,3.88,0,0,1,.43-1.78l.38-.57a.72.72,0,0,0,.13-.37c0-.26-.29-.44-.69-.44a6.47,6.47,0,0,0-2.68,1c-.46.28-.77.61-.77.81a.35.35,0,0,0,.16.29l.42.27a.19.19,0,0,1,.08.16.72.72,0,0,1-.16.3l-.76,1a12.74,12.74,0,0,1-1.6,1.68,2.62,2.62,0,0,0-.38.38l-.3.57A6,6,0,0,1,19,36a3.36,3.36,0,0,0-.53.42,3.47,3.47,0,0,0-.3.53,8.43,8.43,0,0,1-.5.8,8.59,8.59,0,0,1-.91,1.18L15.68,40a6.27,6.27,0,0,0-1.07,2.36c-.27.84-.51,1.34-.65,1.34s-.17-.08-.3-.23c-.75-.86-1.4-1.37-1.75-1.37a1.07,1.07,0,0,0-.42.19,3,3,0,0,1-1,.38l-1.41.26A3,3,0,0,0,7,44.06c-.15.17-.27.26-.33.26s-.2-.19-.2-.44l0-.35.19-1A8.5,8.5,0,0,1,7.42,40l.64-1.18a1.3,1.3,0,0,0,.19-.62,2.07,2.07,0,0,0-2-1.78c-.28,0-.39-.09-.39-.25s.31-.57.73-.89a4.65,4.65,0,0,1,2.4-1,5.23,5.23,0,0,1,1.71.46l.84.34a2.25,2.25,0,0,0,.85.2c.89,0,1.75-.81,2.8-2.63a4,4,0,0,0,.69-2c0-1-.46-1.55-1.21-1.55a2.44,2.44,0,0,0-1.65.72,1.73,1.73,0,0,0-.59,1.18v.52c0,.36-.12.55-.33.55s-.88-.51-2.38-2.32a4.48,4.48,0,0,1-1.41-3.28C7,24.9,6.72,24.2,6.72,23l.05-.79a3.64,3.64,0,0,1-1.15-2.65,2,2,0,0,1,.27-1,3.91,3.91,0,0,1-.72-1.48L5,16.3a4.12,4.12,0,0,0-.61-1.41C4,14.4,4,14.33,4,14.17c0-.44.3-.62,1.64-.95a6.2,6.2,0,0,1-.08-.84,4.64,4.64,0,0,1,.12-.91l.27-1.41a7.57,7.57,0,0,0,.16-1.22,3.94,3.94,0,0,0-.28-1.21,4.17,4.17,0,0,0-.34-.88,1.48,1.48,0,0,1-.23-.52c0-.13.09-.21.26-.21A6.35,6.35,0,0,1,7.91,7.47c2.18,1.81,2.64,2.53,2.93,4.72,0,.17.06.42.11.77a3.39,3.39,0,0,1,1.6,2.7,4.75,4.75,0,0,1-.76,2.44L11,19.27a2.3,2.3,0,0,0-.34,1.26,4.41,4.41,0,0,0,.72,2.28c.58,1,1.08,1.45,1.7,1.45,1,0,1.88-1.75,1.88-3.73v-1a9.74,9.74,0,0,1,.08-1.25q.11-.89.11-1.1l0-.92v-.6a1.11,1.11,0,0,0-.4-.73L14,14.06a5.93,5.93,0,0,1-1.88-3.49,1.94,1.94,0,0,1,1.94-2,2.76,2.76,0,0,1,.81.15V8.43c0-1.68.34-2.92.81-2.92l.18.06.69.61.84.53.23.23c0-.47,0-.52.5-1.07.11-.13.29-.37.53-.72s.32-.47.38-.57l.19-.34c.1-.19.2-.28.31-.28s.19.14.33.55c.09.26.15.33.8.91a2.47,2.47,0,0,1,.45.5,5,5,0,0,1,.31.76l.11.31a2.29,2.29,0,0,1,.76-.69l.57-.34a1.24,1.24,0,0,1,.42-.2s.12.09.19.23.16.32.3.57a2.91,2.91,0,0,1,.54,1.38v.83A2.13,2.13,0,0,1,26,11.15a5.35,5.35,0,0,1-1.49,3.25c-.65.78-.73.93-.73,1.48,0,2.82,2,4.45,5.41,4.5l2.55,0a12.3,12.3,0,0,1,4.15.68,10,10,0,0,0,2.86.73.87.87,0,0,0,.49-.16.45.45,0,0,0,.23-.34c0-.53-.94-1-4-1.83-6.28-1.78-8.95-4.31-8.95-8.47a5.84,5.84,0,0,1,6.13-5.7A13.32,13.32,0,0,1,36.5,6l1.56.57a2.41,2.41,0,0,0,.82.16c.53,0,.8-.44.82-1.34,0-.48.12-.65.43-.65s1.12.55,1.74,1.41a4.93,4.93,0,0,1,1,2.5,2.17,2.17,0,0,1-1.34,2,3.73,3.73,0,0,1-3.32,1.9c-1.1,0-2.66-.62-5.25-2.09a3.75,3.75,0,0,0-1.84-.68,1,1,0,0,0-1.11,1c0,.55.43.9,1.54,1.29a5.42,5.42,0,0,1,2.7,1.49,7.7,7.7,0,0,1,4,1.6c3.34,1.06,5.41,3.34,5.41,6a4.1,4.1,0,0,1-4.11,4.37,7.38,7.38,0,0,1-1.8-.23"/><path class="cls-6" d="M41.57,41.89a4.15,4.15,0,0,1-.14-.92l0-.3.11-.61,0-.49a1.92,1.92,0,0,0-.27-1.14l-.46-.61a2.78,2.78,0,0,1-.38-.73,1,1,0,0,1-.08-.32.26.26,0,0,1,.28-.28c.1,0,.14,0,.49.22a.79.79,0,0,0,.37.13c.23,0,.35-.37.35-1a2.25,2.25,0,0,0-.23-1.33l-.57-.65-.49-.42a.51.51,0,0,1-.2-.33.28.28,0,0,1,.31-.28,3.16,3.16,0,0,1,.84.19l.17,0c.16,0,.22-.09.22-.32V32.6l-.11-.8L41.61,31c-.07-.27-.12-.31-.29-.31h-.1l-.95.19-.15,0a3.38,3.38,0,0,1-3-2.37L36.39,26a5.09,5.09,0,0,0-1.83-2.33,1.68,1.68,0,0,0-.76-.41l-.69-.08c-.13,0-.21-.09-.21-.19s.15-.23.47-.23l1.26.11a9.87,9.87,0,0,1,2.06.53,8.06,8.06,0,0,0,2.56.56c1.9,0,3-1,3-2.75a4.82,4.82,0,0,0-1.56-3.37A3.51,3.51,0,0,0,39.47,17a.2.2,0,0,0-.19.2l0,.49v0c0,.19-.11.34-.26.34s-.41-.25-.66-.76a3.65,3.65,0,0,0-3-2.39c-.2,0-.34.08-.34.2a2,2,0,0,0,.19.55l.3.68a1.29,1.29,0,0,1,.12.35s-.07.08-.16.08a1.1,1.1,0,0,1-.65-.36l-.57-.61-.5-.76a3.44,3.44,0,0,0-1.56-1.33l-.91-.5a1,1,0,0,0-.47-.15.18.18,0,0,0-.2.2.81.81,0,0,0,.15.41,2.08,2.08,0,0,1,.39.76.22.22,0,0,1-.2.22c-.29,0-.91-.6-1.45-1.41a3.89,3.89,0,0,1-.69-2.14A2.76,2.76,0,0,1,31.62,8.3a5.84,5.84,0,0,1,2.86,1l1.79,1.11a4.71,4.71,0,0,0,2.08.69,5.15,5.15,0,0,0,1.12-.19,1.81,1.81,0,0,0,.46-.19c.11-.06.18-.15.18-.21a.17.17,0,0,0-.11-.17l-.23-.08-.84-.15a4.78,4.78,0,0,1-1-.38,18.2,18.2,0,0,1-1.91-1A7.43,7.43,0,0,0,34.75,8c-.31-.11-.5-.24-.5-.36a.15.15,0,0,1,.17-.17.84.84,0,0,1,.41.15,2.94,2.94,0,0,0,1.41.53l1.64.57a10.06,10.06,0,0,0,2.53.53A1.25,1.25,0,0,0,41.66,8,3.32,3.32,0,0,0,41,6.33c-.09-.12-.18-.19-.26-.19s-.24.11-.24.31l0,.31.06.45a.82.82,0,0,1-.75.88,2,2,0,0,1-.6-.12l-2.47-.8a12.75,12.75,0,0,0-4.07-.88c-3,0-5.22,2-5.22,4.71,0,3,2.13,5,7.39,6.79s5.9,2.21,5.9,3.54a1.61,1.61,0,0,1-1.64,1.45,5,5,0,0,1-.91-.08l-2.59-.61a19.26,19.26,0,0,0-4.74-.54c-3.74,0-5.81.65-7.6,2.4a1.24,1.24,0,0,1-1.11.5h-.26l-.53,0h-.07a1.2,1.2,0,0,0-1.07.69l-.65,1a.55.55,0,0,1-.43.23c-.34,0-.55-.26-.93-1.18a3.23,3.23,0,0,0-.8-1.15l-.76-.69a.47.47,0,0,1-.19-.29.75.75,0,0,1,.15-.35,2.84,2.84,0,0,0,.53-1c.1-.51.12-.53.32-.53s.3.23.32,1.11a2.77,2.77,0,0,0,.31,1l.42.91a.36.36,0,0,0,.34.19c.39,0,.89-.93,1-1.91.11-.82.2-1.07.36-1.07a.2.2,0,0,1,.17.08c0,.06.16.28.34.68a1.53,1.53,0,0,0,.5.57,1.56,1.56,0,0,0,.46.27h0c.31,0,.41-.2.49-.92l0-.38-.08-.54-.05-.37c0-.24.09-.39.23-.39a.44.44,0,0,1,.28.15l.38.38a1.11,1.11,0,0,0,.75.38c.32,0,.51-.13.51-.34a2,2,0,0,0-.35-.88l-.27-.49c-.31-.57-.55-.8-.83-.8l-.38,0-.45.19a1,1,0,0,1-.3.09c-.07,0-.12-.06-.12-.15a3.45,3.45,0,0,1,.65-1.55,7.51,7.51,0,0,0,.61-3c.13-2,.4-3.28.67-3.28s.26.16.26.59l0,.52v.36c0,.36.08.64.17.64.33,0,.71-.48,1-1.27a2.36,2.36,0,0,0,.2-.78l0-.18-.76-1.41-.76-.23a.42.42,0,0,1-.27-.17V8.35l-.08-.46-.15-.38-.19-.42a4.29,4.29,0,0,0-1.52,1.14c-.3.4-.47.55-.62.55a.2.2,0,0,1-.18-.2A3.56,3.56,0,0,1,20.7,8l0-.21A2.63,2.63,0,0,0,19.41,5.6l-.23.3-.27.38-.46.53a2.21,2.21,0,0,0-.38.76A1.47,1.47,0,0,0,18,8v.2c0,.32,0,.4-.18.4l-.09,0-.27-.38L17,7.74l-.65-.42-.34-.27-.15.34a1.92,1.92,0,0,0-.19.61l0,.61,0,.64v.11c0,.33-.08.46-.28.46a1.36,1.36,0,0,1-.44-.19,1.11,1.11,0,0,0-.55-.16,1,1,0,0,0-1,1.05,3.34,3.34,0,0,0,.61,2l.49.65c.14.17.39.32.4.23l.09-.8L14.88,12l0-.29c0-.25.09-.4.23-.4s.34.24.48.88l.3,1.41.31,1.79a7.1,7.1,0,0,0,.46,1.52,7.94,7.94,0,0,0,.65,1.33c.42.54.47.62.47.74a.18.18,0,0,1-.16.18.86.86,0,0,1-.34-.11,1.57,1.57,0,0,0-.46-.15l-.3,0c-.61,0-.74.52-.74,3.07a15.45,15.45,0,0,0,.73,4.67l.8,2a2.53,2.53,0,0,1,.19.94c0,2.78-3.68,7.13-7.73,9.15a3.13,3.13,0,0,0-2.09,3.12l0,.5a5.14,5.14,0,0,1,1.29-.53c1.14-.3,1.35-.44,1.53-1l.15-.5c.06-.19.15-.25,1-.72a1.58,1.58,0,0,0,.61-.49c.19-.32.35-.49.45-.49s.15,0,.15.12l0,.14-.38,1.09,0,.27A2.07,2.07,0,0,0,13.62,42a3.44,3.44,0,0,1,.5-1.6l.68-1.07a2.87,2.87,0,0,0,.36-1.63,7,7,0,0,0-.09-1.19l0-.3c0-.19.1-.31.27-.31s.24,0,.25.11l.15.72a.36.36,0,0,0,.37.27c.37,0,.84-.48,1.34-1.33a2,2,0,0,0,.28-1l-.06-.52-.11-.57v-.11c0-.25.14-.42.34-.42s.16,0,.17.07l.23.88a.59.59,0,0,0,.49.5c.26,0,.69-.44,1-1A3.37,3.37,0,0,0,20.06,32c0-.81.08-1,.38-1,.1,0,.17,0,.19.09l.15.5c.06.18.17.3.27.3s.58-.46.87-1a.72.72,0,0,0,.12-.35c0-.16-.11-.33-.34-.52-.4-.33-.42-.38-.42-.88a2.26,2.26,0,0,1,.42-1.33c.18-.33.35-.63.49-.92.48-.94.65-1.18.83-1.18a.32.32,0,0,1,.28.34.7.7,0,0,1-.08.31,1.3,1.3,0,0,0-.15.45.28.28,0,0,0,.28.27,1.49,1.49,0,0,0,.67-.23c.1-.06.46-.2,1.06-.42L26.34,26a2.25,2.25,0,0,1,.76-.12,3,3,0,0,1,.68.08,5.36,5.36,0,0,0,.88.16.66.66,0,0,0,.65-.63,2.37,2.37,0,0,0-.61-1.16.66.66,0,0,1-.2-.35l0-.15a.25.25,0,0,1,.2-.15c.26,0,.86.64,1.4,1.49,3.28,5.16,4.45,6.41,6.66,7.08s2.82,1.21,2.82,2.53a5,5,0,0,1-1.19,2.72c-1.66,2.32-2.06,3.26-2.06,4.79v.28l.42-.19a3.4,3.4,0,0,1,.61-.27l1-.19a.82.82,0,0,0,.54-.78v-.1l-.11-.84V40.1a1.12,1.12,0,0,1,.35-.8.34.34,0,0,1,.2-.08.39.39,0,0,1,.3.24l.61,1.29a2.2,2.2,0,0,0,1.33,1.14"/><path class="cls-6" d="M10.87,14.29c-.28,0-.42.24-.45.76l-.07.72a6.44,6.44,0,0,0-.09.92c0,.54.16.95.38.95s.62-.47.81-1a2.55,2.55,0,0,0,.17-.89,2.62,2.62,0,0,0-.17-.86c-.14-.39-.35-.61-.58-.61"/><path class="cls-6" d="M7.72,8.73l.53.53c.87.87,1.3,2.31,1.3,4.36,0,.45,0,.75-.12,2,0,.64-.08,1.16-.08,1.57,0,4.72,1.53,8.29,3.57,8.29.64,0,1.05-.31,1.65-1.22.1-.15.25-.27.34-.27s.18.1.19.31l.08.84.08.72.07.8.11.72v.09a.32.32,0,0,1-.27.36l-.68.12a3,3,0,0,0-1.07.42,3.08,3.08,0,0,0-1,.76L12,30a.3.3,0,0,1-.24.19c-.22,0-.58-.39-1-1.07a3.66,3.66,0,0,1-.56-1.24c0-.12.09-.17.33-.17h.07l.49,0,.3,0,.34,0a.27.27,0,0,0,.23-.27.24.24,0,0,0-.15-.23l-1.71-.73a2.67,2.67,0,0,1-1.29-1.25,5.14,5.14,0,0,1-.69-1.71c0-.23.12-.39.31-.39a.63.63,0,0,1,.27.08,1.54,1.54,0,0,0,.48.15.27.27,0,0,0,.28-.24.72.72,0,0,0-.31-.41C7.78,21.62,7,20.43,7,19.4c0-.29.07-.42.22-.42l.28,0,.49.07H8a.3.3,0,0,0,.33-.29c0-.1-.13-.25-.31-.35l-.61-.34a1.67,1.67,0,0,1-.53-.54c-.06-.1-.28-.5-.65-1.22l-.53-1c-.2-.38-.31-.6-.34-.65a3.53,3.53,0,0,0-.23-.31,2.4,2.4,0,0,1,1.19-.31c.52,0,.85.34,1.22,1.26.23.58.48,1,.63,1s.1-.13.1-.45a4.21,4.21,0,0,0-.16-1.13,2.64,2.64,0,0,1-.11-.84l-.07-.53-.45-.23a1,1,0,0,1-.34-.38,1.63,1.63,0,0,1-.3-.87,3,3,0,0,1,.11-.69,10.55,10.55,0,0,0,.5-2.49V8.35Z"/><path class="cls-6" d="M12.29,36.18a4.28,4.28,0,0,1-1.11-.27l-.72-.3A3.84,3.84,0,0,0,9,35.22a2.33,2.33,0,0,0-1.59.65l.34.26.76.53.73.57a1,1,0,0,0,.63.23,3.58,3.58,0,0,0,2.42-1.3"/><path class="cls-6" d="M26.95,43.11a2.15,2.15,0,0,1,.76-1c1.06-.91,1.56-1.59,1.56-2.13v-.84c0-.49.08-.65.34-.65a.24.24,0,0,1,.23.12l.19.45a.34.34,0,0,0,.32.18c.15,0,.37-.17.56-.44l.38-.53a1.15,1.15,0,0,0,.19-1.18l-.27-.61a1.8,1.8,0,0,1-.16-.6c0-.25.13-.4.34-.4a.34.34,0,0,1,.27.12L32,36a.37.37,0,0,0,.29.13.52.52,0,0,0,.4-.32l.3-.61a.91.91,0,0,0,.12-.34c0-.12-.12-.24-.35-.34l-.5-.23a2.75,2.75,0,0,1-1.15-2.44,1.12,1.12,0,0,1,.08-.41l.27-.65a1.54,1.54,0,0,0,.12-.61A2.16,2.16,0,0,0,31.17,29q-.46-.7-.5-.8c-.22-.6-.34-.77-.53-.77l-.19,0-.27.15-.42.23-.49.61-.53.26a1.78,1.78,0,0,0-.62,1.4c0,1,.11,1.26,1.42,3.52a4.72,4.72,0,0,1,.78,2.18q0,2.34-4.2,3.34l-1.75.42a3,3,0,0,0-2.32,2.71A2.84,2.84,0,0,1,23.23,42h.65c.51,0,.58,0,.9-.5A2.89,2.89,0,0,1,26,40.41l.61-.27.5-.27.15,0c.14,0,.21.06.21.16a1.23,1.23,0,0,1-.36.64,2,2,0,0,0-.61,1.47,1.42,1.42,0,0,0,.42,1"/><path class="cls-6" d="M22.15,37.21a4.37,4.37,0,0,1,1.14,1c.36.5.42.53.77.53a2.37,2.37,0,0,0,.56-.08l.34-.07c.63-.12.84-.21.84-.37a.48.48,0,0,0-.19-.32l-.42-.38-.42-.38a2.05,2.05,0,0,0-1.26-.43,2.4,2.4,0,0,0-1.37.47"/><path class="cls-6" d="M34.49,39.26l.23,0,.34,0,.34,0h.17a1.66,1.66,0,0,0,1.66-1.47c0-.26-.24-.41-.67-.41-1,0-1.67.59-2.07,1.91"/><path class="cls-3" d="M20.29,13c0,.35.22.64.41.64s.34-.42.74-1.09a6.7,6.7,0,0,0,1.06-2.29c0-.16-.08-.28-.19-.28h0l-.42.38a3.38,3.38,0,0,1-1.3.68c-.43.16-.59.34-.59.65L20,12l.19.53Z"/><path class="cls-3" d="M18,11l.64.34a.43.43,0,0,1,.28.37l0,.24a2.6,2.6,0,0,0,0,.81.65.65,0,0,1-.76.67c-.13,0-.06-.08-.36-.42l-.84-1a3.52,3.52,0,0,1-.57-1.71v-.1c0-.21.07-.29.23-.29a.83.83,0,0,1,.42.19Z"/><path class="cls-3" d="M19.44,15h-.21l-.44,0-.46-.27a1.08,1.08,0,0,0-.54-.15c-.34,0-.57.19-.57.48a5.45,5.45,0,0,0,.5,1.69l.5,1.22c.43,1.07.86,1.52,1.42,1.52s.57-.49.9-1.33c.76-1.91,1.18-2.2,1.18-2.87,0-.46-.1-.59-.52-.59l-.35-.08-.61.39Z"/><path class="cls-6" d="M19.41,16h-.5a.23.23,0,0,0-.19.11l-.07.19.19.92.15.8c.08.44.25.61.57.61s.6-.26.65-.72l.08-.84c0-.56.07-.85.07-.87a.33.33,0,0,0-.11-.23.28.28,0,0,0-.19-.08h0Z"/><path class="cls-3" d="M108.85,25.21l.15.57c.14.51.24.92.31,1.22.48,2.18.88,2.74,1.94,2.74a1.26,1.26,0,0,0,1.26-.84l.23-.76a.36.36,0,0,1,.36-.28c.41,0,.64.45.67,1.38a18.13,18.13,0,0,0,.23,1.86,11,11,0,0,1,.15,1.76,2.66,2.66,0,0,1-.23,1.09l.07.46a7.62,7.62,0,0,1,.16,1.4c0,1.63-.08,2.12-.46,2.75a4.81,4.81,0,0,1,.2,1.36,11.39,11.39,0,0,1-.12,1.34l-.15,1.14,0,.68a2.08,2.08,0,0,1,.15.46.17.17,0,0,1-.15.19l-.76-.31L112,43a3.92,3.92,0,0,1-.87-.68,3.08,3.08,0,0,1-1.72,1,7.37,7.37,0,0,0-2,.69,1.24,1.24,0,0,1-.53.26c-.29,0-.5-.57-.5-1.41a6.26,6.26,0,0,1,.27-2.32,4.84,4.84,0,0,0-1.39-.34,3.15,3.15,0,0,0-.56.07l-.17,0c-.11,0-.17-.14-.17-.36a4.59,4.59,0,0,1,.61-1.74,3.42,3.42,0,0,1,1.87-1.68l1.37-.26c.81-.16,1.3-.59,1.3-1.16s-.36-.91-1.18-1.21l-1.6-.57a8.35,8.35,0,0,1-1.52-.72l-.84-.5a.91.91,0,0,0-.41-.11c-.34,0-.55.25-.55.65a1.15,1.15,0,0,0,1.11,1.18,1,1,0,0,0,.39-.08,1.24,1.24,0,0,1,.35-.12c.17,0,.3.17.3.41a4.79,4.79,0,0,1-.88,2.41l-.46.57-.34.46a5.11,5.11,0,0,1-2.05,3,2.37,2.37,0,0,0-.42.3,6,6,0,0,0-.3.53,6.7,6.7,0,0,1-.76.92,7.15,7.15,0,0,1-1,.87,3.6,3.6,0,0,0-.76.69l-.38.65a.34.34,0,0,1-.3.2c-.34,0-.65-.35-.84-1-.14-.45-.26-.57-.55-.57a3,3,0,0,0-.67.12l-.53.07H94.07a6.11,6.11,0,0,0-2.13.39,1,1,0,0,1-.39.12c-.2,0-.3-.2-.3-.58a7,7,0,0,1,2.14-4.22,1.62,1.62,0,0,0-1-1.29l-.69-.19a.21.21,0,0,1-.11-.18c0-.24.27-.48.88-.77a4.06,4.06,0,0,1,2-.61,3.07,3.07,0,0,1,2,.8c1,.8,1.32,1,1.81,1a1.65,1.65,0,0,0,1.59-1.52,3.55,3.55,0,0,0-1-2,4.9,4.9,0,0,1-1.37-3.24,3.65,3.65,0,0,1,.8-2.21.93.93,0,0,0,.16-.41c0-.21-.35-.4-.73-.4a4.07,4.07,0,0,0-1.6.46c-1.15.53-1.83,1-1.83,1.31a.41.41,0,0,0,.19.32l.38.27a.19.19,0,0,1,.08.16.62.62,0,0,1-.16.3q-.11.13-.76,1a8.72,8.72,0,0,1-1.59,1.68,1.48,1.48,0,0,0-.39.38l-.3.57A6.45,6.45,0,0,1,90.07,36a4.11,4.11,0,0,0-.53.42,3.42,3.42,0,0,0-.34.53,11.39,11.39,0,0,1-1.41,2l-1,1.07a7.67,7.67,0,0,0-1.1,2.36c-.31.92-.51,1.34-.65,1.34s-.17-.08-.3-.23c-.74-.84-1.4-1.37-1.73-1.37a1.19,1.19,0,0,0-.44.19,3.15,3.15,0,0,1-1,.38l-1.37.26A2.93,2.93,0,0,0,78,44.06c-.13.17-.24.26-.3.26s-.23-.2-.23-.46l0-.33s.07-.38.19-1A8.44,8.44,0,0,1,78.46,40l.69-1.18a1.29,1.29,0,0,0,.19-.61c0-.88-.82-1.59-2.06-1.79-.25,0-.38-.13-.38-.27s.3-.51.77-.87a4.38,4.38,0,0,1,2.33-1,5,5,0,0,1,1.75.45l.84.34a2.25,2.25,0,0,0,.85.2c.89,0,1.74-.81,2.81-2.63a4,4,0,0,0,.69-2c0-1-.45-1.54-1.2-1.54a2.27,2.27,0,0,0-1.62.72,1.84,1.84,0,0,0-.63,1.22l0,.39,0,.2c0,.31-.1.45-.33.45s-.62-.28-1.28-1.07l-1.07-1.25a4.34,4.34,0,0,1-1.45-3.28C78.08,24.9,77.77,24,77.77,23l0-.79a3.35,3.35,0,0,1-1.1-2.64,1.7,1.7,0,0,1,.23-1,3.89,3.89,0,0,1-.72-1.48L76,16.3a4.14,4.14,0,0,0-.61-1.41c-.34-.49-.38-.56-.38-.71,0-.4.38-.65,1.34-.89l.3-.08a6.59,6.59,0,0,1-.08-.84,4.89,4.89,0,0,1,.12-.91L77,10.06a7.54,7.54,0,0,0,.16-1.25,3.77,3.77,0,0,0-.23-1.18,3.28,3.28,0,0,0-.38-.88,1.05,1.05,0,0,1-.23-.5c0-.13.13-.23.3-.23a.9.9,0,0,1,.38.12,14.81,14.81,0,0,1,3.69,2.93c.86,1,1.14,1.75,1.33,3.89a3.25,3.25,0,0,1,1.6,2.89,4,4,0,0,1-.77,2.25c-.47.71-.72,1.11-.76,1.18a2.52,2.52,0,0,0-.34,1.29,4.43,4.43,0,0,0,.73,2.25c.57,1,1.08,1.45,1.68,1.45,1,0,1.9-1.73,1.9-3.62v-1.4l.12-.91.07-1.1.07-.92,0-.51c0-.37-.08-.48-1.25-1.74s-1.9-2.55-1.9-3.64a1.93,1.93,0,0,1,1.94-1.88,2.76,2.76,0,0,1,.81.15V8.23l0-.8.23-1c.18-.79.27-.93.54-.93l.19.06.69.61.83.53.23.23a1.56,1.56,0,0,1,.49-1.07c.2-.25.38-.49.53-.72l.38-.57.23-.34c.15-.23.22-.29.32-.29s.18.13.29.56a1.07,1.07,0,0,0,.34.49l.5.42A2.76,2.76,0,0,1,92.59,7a2.25,2.25,0,0,1,.76-.69L94,5.95a1.56,1.56,0,0,1,.4-.19s.11.09.17.23a4,4,0,0,0,.31.57c.49.79.53.9.53,1.44v.77a2.08,2.08,0,0,1,1.72,2.37,5.2,5.2,0,0,1-1.45,3.26c-.65.78-.76,1-.76,1.61,0,2.69,2,4.31,5.44,4.36l2.51,0a12.32,12.32,0,0,1,4.15.68,10,10,0,0,0,2.87.73c.39,0,.71-.22.71-.48,0-.55-.92-1-4-1.85-6.27-1.77-8.95-4.31-8.95-8.46a5.86,5.86,0,0,1,6.16-5.7,13.27,13.27,0,0,1,3.78.65l1.56.57a2.4,2.4,0,0,0,.82.16c.54,0,.74-.34.82-1.34,0-.45.18-.65.46-.65s1.18.63,1.74,1.41a5.05,5.05,0,0,1,1,2.55,2.17,2.17,0,0,1-1.34,1.94,3.72,3.72,0,0,1-3.32,1.9c-1.08,0-2.93-.73-5.25-2.09a3.43,3.43,0,0,0-1.82-.68,1,1,0,0,0-1.13,1c0,.55.41.89,1.54,1.29,1.8.64,2.19.85,2.7,1.49a7.69,7.69,0,0,1,4,1.6c3.48,1.11,5.41,3.26,5.41,6a4,4,0,0,1-4.05,4.31,7.36,7.36,0,0,1-1.85-.23"/><path class="cls-6" d="M112.62,41.89a2.67,2.67,0,0,1-.12-.7l0-.52a10.27,10.27,0,0,0,.12-1.48,1.19,1.19,0,0,0-.28-.76l-.46-.61a1.67,1.67,0,0,1-.42-1c0-.22.05-.29.2-.29l.18,0,.34.19a.84.84,0,0,0,.38.13q.35,0,.34-1.07a2,2,0,0,0-.76-1.92l-.53-.42a.42.42,0,0,1-.16-.31.27.27,0,0,1,.28-.3,2,2,0,0,1,.44.08l.42.12.16,0c.13,0,.19-.1.19-.32V32.6l-.11-.8c-.12-.83-.26-1.15-.5-1.15h-.07l-1,.19-.17,0a3.5,3.5,0,0,1-3-2.37L107.48,26a5.12,5.12,0,0,0-1.83-2.33,1.79,1.79,0,0,0-.8-.41l-.68-.08c-.12,0-.21-.09-.21-.19s.13-.23.41-.23a10.74,10.74,0,0,1,3.37.65,8.27,8.27,0,0,0,2.54.56c1.91,0,3.05-1,3.05-2.64a5.15,5.15,0,0,0-.73-2.53,6.11,6.11,0,0,0-1.79-1.67.6.6,0,0,0-.3-.12.19.19,0,0,0-.19.19l0,.49v0c0,.19-.11.34-.24.34s-.43-.25-.67-.76a3.6,3.6,0,0,0-3-2.39c-.25,0-.4.09-.4.24a1.12,1.12,0,0,0,.2.5,4.32,4.32,0,0,1,.34.68,1,1,0,0,1,.09.33c0,.07-.06.11-.17.11a1.09,1.09,0,0,1-.64-.36l-.57-.61-.49-.76a3.64,3.64,0,0,0-1.52-1.33l-1-.5a1.13,1.13,0,0,0-.49-.15.16.16,0,0,0-.18.17.83.83,0,0,0,.17.44,1.94,1.94,0,0,1,.35.76.21.21,0,0,1-.19.23c-.27,0-.74-.48-1.42-1.41a3.61,3.61,0,0,1-.73-2.14,2.8,2.8,0,0,1,2.83-2.85,5.85,5.85,0,0,1,2.85,1l1.83,1.11a4.72,4.72,0,0,0,2.09.69,3.47,3.47,0,0,0,1.07-.19,1.93,1.93,0,0,0,.49-.19.28.28,0,0,0,.14-.22c0-.15-.09-.21-.33-.23a10.79,10.79,0,0,1-3.77-1.49A9.75,9.75,0,0,0,105.8,8c-.31-.11-.52-.27-.52-.41s.06-.09.16-.09l.22,0,1.66.61,1.6.57a10.05,10.05,0,0,0,2.56.53A1.17,1.17,0,0,0,112.7,8,2.43,2.43,0,0,0,112.46,7c-.23-.46-.54-.84-.66-.84s-.23.15-.23.41l0,.2,0,.49c0,.51-.28.85-.72.85a2.08,2.08,0,0,1-.62-.12l-2.48-.8a12.25,12.25,0,0,0-4-.88c-3,0-5.25,2-5.25,4.71,0,3,2.08,4.94,7.43,6.79,5.19,1.8,5.86,2.21,5.86,3.58a1.54,1.54,0,0,1-1.66,1.41,4.87,4.87,0,0,1-.89-.08l-2.59-.61a18.69,18.69,0,0,0-4.73-.54c-3.78,0-5.59.58-7.57,2.4a1.35,1.35,0,0,1-1.15.5H93l-.6,0a1.19,1.19,0,0,0-1.08.69l-.61,1a.5.5,0,0,1-.44.23c-.4,0-.6-.26-1-1.18A2.94,2.94,0,0,0,88.52,24l-.8-.69c-.12-.1-.19-.2-.19-.28a.79.79,0,0,1,.19-.37,3.8,3.8,0,0,0,.34-.53,1.53,1.53,0,0,0,.19-.46l0-.34a.27.27,0,0,1,.27-.19c.25,0,.3.17.3,1.11a2.73,2.73,0,0,0,.3,1l.42.91a.37.37,0,0,0,.34.19c.4,0,.9-.93,1-1.91.11-.81.2-1.07.36-1.07s.23.1.55.76a1.81,1.81,0,0,0,.46.57,1.12,1.12,0,0,0,.46.27h0c.31,0,.42-.2.49-.92l0-.38-.08-.54-.05-.37c0-.24.09-.39.23-.39a.45.45,0,0,1,.28.15l.38.38a1.1,1.1,0,0,0,.77.38c.33,0,.53-.14.53-.37s0-.28-.38-.85l-.27-.49c-.34-.64-.5-.8-.8-.8l-.39,0-.5.19a1.1,1.1,0,0,1-.3.09c-.06,0-.12-.07-.12-.15a3.43,3.43,0,0,1,.65-1.55,8.73,8.73,0,0,0,.65-3l.19-1.79c.11-1.1.23-1.49.46-1.49s.14,0,.15.08l.11.57v.46a2.08,2.08,0,0,0,.13,1c.16,0,.4-.19.63-.51A2.76,2.76,0,0,0,96,12a3.61,3.61,0,0,0,.19-1c0-.88-.37-1.26-1.56-1.59a.42.42,0,0,1-.23-.11l0-.34V8.35l-.08-.46-.15-.38L94,7.09l-.3.19a4,4,0,0,0-1.22,1c-.35.44-.47.55-.61.55a.18.18,0,0,1-.19-.16L91.79,8V7.85A2.83,2.83,0,0,0,90.49,5.6l-.27.3L90,6.29l-.46.53A1.79,1.79,0,0,0,89.08,8v.25c0,.3,0,.4-.19.4l-.08,0-.3-.38-.38-.46-.69-.42-.34-.27A3.18,3.18,0,0,0,86.72,9v.32c0,.34-.11.55-.3.55A1.18,1.18,0,0,1,86,9.64a1.17,1.17,0,0,0-.57-.16,1,1,0,0,0-1,1.11,3.32,3.32,0,0,0,.61,1.94c.3.49.69.89.87.89a4.6,4.6,0,0,0,.12-.82L85.92,12l0-.29c0-.25.09-.4.23-.4s.34.24.48.88l.31,1.41.3,1.79a7.11,7.11,0,0,0,.46,1.52,7.73,7.73,0,0,0,.64,1.33c.42.54.47.62.47.74a.18.18,0,0,1-.17.18.88.88,0,0,1-.34-.11,1.55,1.55,0,0,0-.46-.15l-.28,0c-.63,0-.76.51-.76,3a15.5,15.5,0,0,0,.73,4.7l.8,2a2.55,2.55,0,0,1,.19.95c0,2.78-3.77,7.23-7.73,9.14-1.54.74-2,1.51-2.13,3.62A7.25,7.25,0,0,1,80,41.74c1.12-.31,1.36-.47,1.52-1l.15-.5c.07-.21.21-.32,1-.72a1.55,1.55,0,0,0,.61-.49c.2-.33.35-.49.45-.49s.17.07.17.2v.06l-.42,1.09,0,.27A2.08,2.08,0,0,0,84.67,42c.05-.2.09-.35.11-.45a4.16,4.16,0,0,1,.38-1.14l.73-1.07c.26-.39.31-.64.31-1.62l0-1.2,0-.31c0-.2.09-.31.27-.31s.24,0,.25.12l.11.72a.36.36,0,0,0,.37.27c.37,0,.84-.47,1.34-1.33a1.73,1.73,0,0,0,.27-.91,8.72,8.72,0,0,0-.12-1.18l0-.23a.28.28,0,0,1,.29-.31c.1,0,.17,0,.18.07l.27.88c.09.29.29.5.5.5.58,0,1.19-1.2,1.25-2.47,0-.8.14-1.08.38-1.08a.19.19,0,0,1,.19.09l.15.5c.06.18.17.3.27.3s.29-.17.53-.45a3.75,3.75,0,0,0,.34-.5.84.84,0,0,0,.11-.4c0-.19,0-.24-.34-.48a1,1,0,0,1-.42-.8,4.93,4.93,0,0,1,.91-2.32c.62-1.07.71-1.19.86-1.19a.29.29,0,0,1,.25.32.78.78,0,0,1-.08.33,1.43,1.43,0,0,0-.16.46.29.29,0,0,0,.3.27,1.54,1.54,0,0,0,.69-.23,8.19,8.19,0,0,1,1-.42L97.42,26a2.64,2.64,0,0,1,.78-.12,3,3,0,0,1,.66.08,4.88,4.88,0,0,0,.88.16.6.6,0,0,0,.61-.6,1.61,1.61,0,0,0-.24-.66c-.2-.32-.31-.5-.34-.53s-.23-.27-.23-.34l0-.15a.25.25,0,0,1,.21-.15c.3,0,.89.61,1.42,1.49,3,4.87,4.43,6.42,6.63,7.08s2.82,1.18,2.82,2.54a5,5,0,0,1-1.19,2.71c-1.52,2.11-2.06,3.35-2.06,4.76v.31l.42-.19a3.34,3.34,0,0,1,.61-.27l.95-.19a.8.8,0,0,0,.54-.8v-.08l-.07-.84v-.13c0-.47.23-.86.52-.86a.37.37,0,0,1,.29.23l.61,1.29a2.19,2.19,0,0,0,1.33,1.14"/><path class="cls-6" d="M81.39,15.77l0,.61v.37c0,.62.1.89.33.89s.65-.47.83-1a3.87,3.87,0,0,0,.19-1,1.9,1.9,0,0,0-.19-.72c-.17-.42-.35-.61-.56-.61s-.48.42-.55,1.49"/><path class="cls-6" d="M78.77,8.73l.53.53a5.91,5.91,0,0,1,1.31,3.9l0,.63-.11,1.79,0,1.5c0,5,1.45,8.37,3.58,8.37a2.28,2.28,0,0,0,1.64-1.22c.1-.16.23-.27.31-.27s.18.1.19.31l.08.84.07.72c0,.34.07.61.12.8a4.75,4.75,0,0,1,.12.75c0,.38-.08.42-1,.55a2.6,2.6,0,0,0-1.06.42,3.8,3.8,0,0,0-1,.76l-.42.88a.3.3,0,0,1-.24.19c-.22,0-.52-.34-.94-1.07a3.67,3.67,0,0,1-.56-1.24c0-.12.09-.17.33-.17h.08l.46,0,.34,0,.31,0a.29.29,0,0,0,.23-.28.23.23,0,0,0-.15-.21l-1.71-.73a3.15,3.15,0,0,1-1.25-1.25,3.92,3.92,0,0,1-.69-1.66c0-.27.12-.45.3-.45a.61.61,0,0,1,.28.09,1.43,1.43,0,0,0,.45.15.36.36,0,0,0,.2-.08.26.26,0,0,0,.12-.18c0-.11-.12-.25-.3-.39-1.43-1-2.29-2.24-2.29-3.25,0-.3.07-.43.21-.43l.28,0a3.88,3.88,0,0,0,.53.08c.21,0,.35-.12.35-.29s-.14-.25-.35-.35c-.95-.47-1.18-.75-1.79-2.1a8.55,8.55,0,0,0-1.1-2,2.39,2.39,0,0,1,1.18-.31c.52,0,.85.34,1.22,1.26.23.58.48,1,.63,1s.1-.12.1-.44a4.35,4.35,0,0,0-.16-1.14,2.47,2.47,0,0,1-.11-.84l-.08-.53-.42-.23a1.42,1.42,0,0,1-.65-1.25,3,3,0,0,1,.08-.69l.23-.88a7.41,7.41,0,0,0,.27-1.61V8.35Z"/><path class="cls-6" d="M83.34,36.18a5.62,5.62,0,0,1-1.83-.57,3.46,3.46,0,0,0-1.43-.39,2.35,2.35,0,0,0-1.62.65l.34.26.76.53.73.57a1,1,0,0,0,.64.23c.75,0,1.38-.34,2.4-1.3"/><path class="cls-6" d="M98,43.11a2.2,2.2,0,0,1,.76-1c1.06-.91,1.56-1.59,1.56-2.13v-.84c0-.49.08-.65.34-.65a.24.24,0,0,1,.24.12l.19.45a.33.33,0,0,0,.32.17c.27,0,.46-.19.93-1a1.45,1.45,0,0,0,.28-.75,1.15,1.15,0,0,0-.09-.43l-.27-.61a1.85,1.85,0,0,1-.16-.6c0-.25.13-.4.34-.4a.35.35,0,0,1,.27.12l.3.38c.07.08.09.13.2.13a.65.65,0,0,0,.49-.32l.3-.61a.89.89,0,0,0,.12-.35c0-.13-.12-.26-.31-.34l-.53-.23a2.71,2.71,0,0,1-1.14-2.36,1.68,1.68,0,0,1,.11-.49l.23-.65a1.89,1.89,0,0,0,.11-.63,2.12,2.12,0,0,0-.38-1.16,7.82,7.82,0,0,1-.46-.8c-.22-.57-.35-.75-.54-.75a1,1,0,0,0-.49.18l-.38.23-.53.61-.53.26a1.83,1.83,0,0,0-.62,1.42c0,.82.18,1.27,1.42,3.49a4.83,4.83,0,0,1,.77,2.17c0,1.55-1.58,2.83-4.16,3.35-3.08.63-3.76,1.14-4.11,3.12A2.84,2.84,0,0,1,94.28,42h.65c.51,0,.58,0,.9-.5a2.85,2.85,0,0,1,1.26-1.06l.61-.27.49-.27.15,0c.14,0,.21.06.21.16a1.34,1.34,0,0,1-.36.64,2.19,2.19,0,0,0-.58,1.26A1.83,1.83,0,0,0,98,43.11"/><path class="cls-6" d="M93.2,37.21a4.34,4.34,0,0,1,1.14,1c.36.5.41.53.78.53a2.4,2.4,0,0,0,.56-.08l.34-.07c.65-.12.84-.22.84-.39a.4.4,0,0,0-.16-.3l-.46-.38-.42-.38a2,2,0,0,0-1.2-.42,2.61,2.61,0,0,0-1.43.46"/><path class="cls-6" d="M105.53,39.26l.23,0,.38,0,.3,0h.21a1.13,1.13,0,0,0,.75-.17,3.07,3.07,0,0,0,.73-.87.89.89,0,0,0,.15-.43c0-.26-.24-.41-.65-.41-1,0-1.69.58-2.09,1.91"/><path class="cls-3" d="M91.33,13c0,.35.23.64.41.64s.41-.55.81-1.21a5.91,5.91,0,0,0,1-2.17c0-.16-.08-.28-.19-.28h0l-.42.39a4.39,4.39,0,0,1-1.26.68c-.48.17-.63.32-.63.65l.06.31.32.66Z"/><path class="cls-3" d="M88,10.14a.85.85,0,0,0-.43-.19c-.16,0-.23.08-.23.28v.11a4.34,4.34,0,0,0,.15.65A3.31,3.31,0,0,0,88,12l.57,1a2,2,0,0,0,.83.52h0a.19.19,0,0,0,.2-.16l.12-.76.19-.69,0-.16a.5.5,0,0,0-.29-.44L89,11Z"/><path class="cls-3" d="M90.49,15h-.2l-.44,0-.46-.27a1.05,1.05,0,0,0-.53-.15.52.52,0,0,0-.56.58,5.27,5.27,0,0,0,.48,1.59q.21.48.5,1.22c.42,1.06.85,1.52,1.43,1.52s.89-.4,1.2-1.21l.42-1.72c.2-.53.71-.76.71-1.13a1,1,0,0,0-.9-.86l-.22,0-.57.39Z"/><path class="cls-6" d="M90.46,16H90a.24.24,0,0,0-.19.11.91.91,0,0,0-.12.19l.19.92.15.8c.09.44.16.61.49.61a.73.73,0,0,0,.73-.72l.08-.84c.05-.56.08-.85.08-.87A.33.33,0,0,0,91.3,16a.3.3,0,0,0-.2-.08h0Z"/><path class="cls-3" d="M38.52,97.1A5.87,5.87,0,0,1,39,98.89l.07,1.6c.06,1.6.59,2.4,1.6,2.4a1.19,1.19,0,0,0,.84-.27l.42-.42.17,0c.27,0,.41.17.41.5l0,.62a8.67,8.67,0,0,0,.15,1.75,10.36,10.36,0,0,1,.11,1.54,4.05,4.05,0,0,1-.34,1.85,7.23,7.23,0,0,1,.42,2.3,3.09,3.09,0,0,1-.46,1.85,5.09,5.09,0,0,1,.19,1.29,9,9,0,0,1-.15,1.45,8,8,0,0,0-.15,1.82v.1c0,.24-.07.36-.22.36a.69.69,0,0,1-.47-.3c-.23-.3-.38-.41-.56-.41s-.34.14-.74,1.28a5,5,0,0,1-.91,1.41,3.25,3.25,0,0,0-.69,1.1c-.12.46-.2.72-.23.8a.3.3,0,0,1-.23.19h0c-.63,0-1.35-1.34-2.08-3.88-.21-.72-.47-1-.86-1a.75.75,0,0,0-.66.43l-.23.53a.24.24,0,0,1-.2.15c-.3,0-.77-.56-1.06-1.26a4.83,4.83,0,0,1-.37-1.75c0-1.19.88-2.08,3.53-3.58a2.93,2.93,0,0,0,1.6-3,2.89,2.89,0,0,0-1.37-2.63,3.06,3.06,0,0,0-1.7-.84.6.6,0,0,0-.65.55c0,.36.21.58.71.75s.84.42.84.68a3.62,3.62,0,0,1-.65,1.38,3.51,3.51,0,0,1-1.22,1.26A3.46,3.46,0,0,1,32,111.91a4,4,0,0,1-.76,1.41l-.8,1a3.33,3.33,0,0,0-.57,1.18c-.08.58-.14.68-.36.68s-.92-.54-1.54-1.33a1.85,1.85,0,0,1-.49-1.26,2,2,0,0,1-1.3.45,3.21,3.21,0,0,0-1,.27,2.93,2.93,0,0,1-.88.39c-.16,0-.21-.08-.22-.35l0-.84a5.93,5.93,0,0,1,1.14-3.39,3.78,3.78,0,0,0-1.87-1c-.23,0-.28-.05-.28-.14a1.55,1.55,0,0,1,.36-.7,5.83,5.83,0,0,1,.69-.76,3.77,3.77,0,0,1,2.21-.8,6.92,6.92,0,0,1,2.17.53,2.6,2.6,0,0,0,.91.19c.42,0,.66-.27.66-.75a10.24,10.24,0,0,0-1.11-3.52,7,7,0,0,1-.75-2.51,3.66,3.66,0,0,1,1.4-3.08,1.58,1.58,0,0,0-.85-.23,2.14,2.14,0,0,0-1.17.38c-.56.33-.88.62-.88.81s.12.19.31.33.35.28.35.56a4.39,4.39,0,0,1-1.87,3,3.35,3.35,0,0,1-2.06,2.7,3.7,3.7,0,0,1-.84,1.75,6.6,6.6,0,0,0-1.41,2.63c-.09.41-.19.58-.31.58s-.5-.25-.87-.66a6.39,6.39,0,0,1-.61-.73,3.57,3.57,0,0,1-.42-1.21,1.6,1.6,0,0,1-.55.09l-.56,0h-.38a4.71,4.71,0,0,0-2.17.47.89.89,0,0,1-.33.15c-.25,0-.44-.52-.44-1.15a6.07,6.07,0,0,1,1.27-3.76,6.47,6.47,0,0,1-.73-.68,1.25,1.25,0,0,0-.3-.27l-.42-.23c-.14-.08-.23-.17-.23-.25s.56-.73,1.22-1.16a3.47,3.47,0,0,1,1.84-.69c.62,0,1,.16,1.73.84.54.47.91.69,1.17.69a.72.72,0,0,0,.54-.35,1,1,0,0,0,.2-.57,4.11,4.11,0,0,0-1.83-2.59,4.16,4.16,0,0,0-2.27-.72,2.56,2.56,0,0,0-2.38,1.37l-.42.88c-.1.2-.22.31-.36.31s-.37-.11-1.24-1.11l-1-1.15a3,3,0,0,1-.61-1,2.28,2.28,0,0,0-.19-.5,2.16,2.16,0,0,0-.38-.31,5,5,0,0,1-1.64-3.16c0-.11-.06-.28-.11-.49a6.29,6.29,0,0,1-1.49-3.79,1.67,1.67,0,0,1,.08-.52c-.54-.55-.61-.68-1-2.13a5.37,5.37,0,0,0-.88-2,.65.65,0,0,1-.15-.3c0-.21.32-.38.88-.47A3.61,3.61,0,0,1,6.5,83l.76.05,0-1a7.33,7.33,0,0,1,.2-1.74,4.64,4.64,0,0,0,.11-.79c0-.07,0-.29-.08-.65a3.36,3.36,0,0,0-.11-.57,1,1,0,0,1-.08-.32c0-.12.08-.19.23-.19a1.33,1.33,0,0,1,.5.17,9.51,9.51,0,0,1,1.64,1c1.31,1,2.35,2.61,2.35,3.59l0,.3c-.05.34-.08.53-.08.56a1.14,1.14,0,0,0,.27.62l.42.57A2.9,2.9,0,0,1,13.17,86c0,.36-.07.51-.69,1.4a2.9,2.9,0,0,0-.65,1.7,5.15,5.15,0,0,0,.77,2.41c.45.79,1,1.22,1.46,1.22.85,0,1.22-.75,1.35-2.79.07-1.06.17-2,.31-2.89l0-.52c0-.24-.07-.38-.38-.74l-1.15-1.33c-1.09-1.27-1.42-1.93-1.42-2.84a1.65,1.65,0,0,1,1.68-1.77l.46,0v-.3a4,4,0,0,1,.19-1c.24-.82.54-1.45.7-1.45a1,1,0,0,1,.37.19,5.67,5.67,0,0,0,.69.26,4.57,4.57,0,0,1,.76.38,3.36,3.36,0,0,1,.61-1.33c.49-.63,1-1.14,1.25-1.14s.34.16.62.46l.73.76a2.75,2.75,0,0,1,.42.72l.15.34.46-.26c.3-.18.5-.29.61-.34l.72-.34a1.11,1.11,0,0,1,.39-.2c.13,0,.2.23.48,1.49a8.7,8.7,0,0,1,.27,1.68,1.9,1.9,0,0,1,1.79,2.17,5.72,5.72,0,0,1-1.9,3.84,1.16,1.16,0,0,0-.44.92c0,3.37,1.17,4.43,5.39,4.87A26.88,26.88,0,0,1,35.67,93a12.88,12.88,0,0,0,3.19.69c.72,0,1.12-.26,1.12-.73,0-.71-.51-.93-3.54-1.57-7.05-1.48-9.83-3.89-9.83-8.55A5.66,5.66,0,0,1,32.4,77a9.29,9.29,0,0,1,4.83,1.64c1.92,1.11,2.31,1.3,2.75,1.3s.71-.33.71-1.15c0-.53.16-.79.49-.79a2,2,0,0,1,1.18.8,2.75,2.75,0,0,1,.88,2.16,2.61,2.61,0,0,1-2.17,2.68l-.34.38A3.13,3.13,0,0,1,38,85.18a6.34,6.34,0,0,1-3.38-1.1l-1.83-1.29a3.37,3.37,0,0,0-1.92-.8,1.14,1.14,0,0,0-1.24,1.25A1.73,1.73,0,0,0,31,84.88l1.72.53a8.8,8.8,0,0,1,1.64.68,5.5,5.5,0,0,1,.85-.08,7.23,7.23,0,0,1,3.22.8,4.71,4.71,0,0,0,.69.31l1,.27A5.84,5.84,0,0,1,44,92.78c0,2.69-1.75,4.36-4.57,4.36Z"/><path class="cls-6" d="M37.87,119.72l.23-.46.53-.57a2.82,2.82,0,0,0,.69-2,4.18,4.18,0,0,0-.2-1.23,3.08,3.08,0,0,1-.16-.67c0-.24.18-.47.36-.47a.46.46,0,0,1,.29.19l.57.64a1.33,1.33,0,0,0,.92.57l0-.53,0-.63a4.44,4.44,0,0,0-.84-2.57,1.73,1.73,0,0,1-.44-.76c0-.14.1-.27.21-.27a.32.32,0,0,1,.16.08c.37.27.56.39.66.39s.35-.46.35-1a3.54,3.54,0,0,0-.78-2.13c-.24-.29-.4-.48-.46-.57a.37.37,0,0,1-.08-.22.29.29,0,0,1,.33-.28.78.78,0,0,1,.47.19.59.59,0,0,0,.29.11c.3,0,.4-.42.4-1.55v-.47l0-.69c0-.81-.11-.95-.46-.95h-.3c-1.86,0-2.72-1.18-3.2-4.34-.34-2.29-1.2-3.92-2.25-4.27-.63-.21-.85-.34-.85-.51s.17-.21.36-.21a2.55,2.55,0,0,1,.72.19,10.65,10.65,0,0,0,3.91.91,3.13,3.13,0,0,0,3.26-3A5.21,5.21,0,0,0,40.88,89a2.16,2.16,0,0,0-1-.57h-.07l-.19.06.08.55.15.38,0,.16a.16.16,0,0,1-.18.15.34.34,0,0,1-.28-.15l-.68-1A3.62,3.62,0,0,0,36.17,87c-.31,0-.51.14-.51.36a.86.86,0,0,0,.23.45,1.33,1.33,0,0,1,.35.61l0,.15c0,.09-.1.14-.15.15h0c-.18,0-.27-.08-1.1-1A4.89,4.89,0,0,0,32.1,86.2a.4.4,0,0,0-.28.12.25.25,0,0,0-.08.15.7.7,0,0,0,.27.42,1.31,1.31,0,0,1,.42.58c0,.08-.1.14-.21.14s-.71-.32-1.62-1c-1.42-1.11-2.05-2.17-2.05-3.39a2.49,2.49,0,0,1,2.4-2.63,4.72,4.72,0,0,1,2.55.92l1.87,1.41a4.92,4.92,0,0,0,3,1,1.43,1.43,0,0,0,.66-.15c.17-.08.27-.18.27-.26s-.14-.11-.34-.16a4.31,4.31,0,0,1-1.6-.68l-1.9-1.44a12.87,12.87,0,0,0-1.49-1c-1-.53-1.2-.65-1.2-.77s.1-.11.22-.11a.85.85,0,0,1,.33.08l1,.42a11.37,11.37,0,0,1,1.6,1c2,1.36,3.07,1.8,4.27,1.8a1.89,1.89,0,0,0,2-1.9A1.49,1.49,0,0,0,42,80l-.19-.38c-.07-.14-.19-.24-.23-.19l-.11.15-.11.8a1.6,1.6,0,0,1-.12.27A1.34,1.34,0,0,1,41,81a.86.86,0,0,1-.7.27c-.59,0-1.25-.32-3-1.45a9.42,9.42,0,0,0-4.72-1.75,4.94,4.94,0,0,0-5,4.94c0,3.81,2.33,5.53,9.63,7.13,2.78.6,4,1.42,4,2.65s-.91,1.84-2.36,1.84a5.51,5.51,0,0,1-1-.08q-.37-.08-3.92-1.07a19.77,19.77,0,0,0-5.08-.71c-2.87,0-4.8.85-6.11,2.69-.15.22-.3.35-.4.35a.6.6,0,0,1-.32-.15l-.53-.42a2.58,2.58,0,0,0-1.37-.52,1.2,1.2,0,0,0-.81.33,1,1,0,0,1-.39.26c-.21,0-.61-.48-.9-1.1a6.08,6.08,0,0,1-.65-2.59c0-.38.12-.65.29-.65s.23.1.29.3l.3,1.1c.17.62.52,1.1.78,1.1s.32-.17.55-.46a1.78,1.78,0,0,0,.31-.53c.24-.7.3-.8.48-.8s.34.14.49.83a2.36,2.36,0,0,0,.25.65,3.5,3.5,0,0,0,.46.68.55.55,0,0,0,.39.19c.33,0,.64-.56.64-1.18v-.16l0-.71c0-.27,0-.36.2-.36s.16,0,.27.19a2,2,0,0,0,.65.53,1.29,1.29,0,0,0,.54.19.59.59,0,0,0,.37-.19.44.44,0,0,0,.16-.3c0-.11-.14-.29-.54-.69a4.87,4.87,0,0,1-.76-1.52c-.11-.3-.25-.5-.36-.5l-.25.08-.49.19-.34.15-.13,0a.28.28,0,0,1-.29-.26,2.32,2.32,0,0,1,.77-.9,1.4,1.4,0,0,0,.49-1c0-.64.14-1.15.27-1.15l.12-1.33a13.67,13.67,0,0,1,.57-2.62c0-.14.11-.23.15-.23s.2.29.2.6v.2l0,.39c0,.48.08.73.23.73s.35-.24.52-.66l.34-.87a2,2,0,0,0,.15-.71,1.14,1.14,0,0,0-1.06-1.28l-.28,0-.27.08a.44.44,0,0,1-.37-.48l0-.55,0-.76-.15-.8,0-.38-.34.19-.42.34-.61.49-.5.42a.44.44,0,0,1-.28.12c-.29,0-.33-.08-.33-.67v-.15c0-.48-.21-.85-1-1.77l-.19-.23-.15.27-.42.68-.42,1.06-.08.68c0,.2-.1.35-.17.35s-.21-.1-.36-.27a3,3,0,0,0-1.64-1.1l-.07.26c-.14.45-.22.72-.23.8l0,.72v.55c0,.21-.08.33-.21.33h0l-.23-.19a.7.7,0,0,0-.46-.12c-.71,0-1.16.38-1.16,1,0,.46.16.8.86,1.86.31.47.67.85.81.85s.17-.25.17-.54l-.07-.46a1.9,1.9,0,0,1-.11-.58c0-.21.06-.33.18-.33.34,0,.7,1,.84,2.36l.15,1.41a4.71,4.71,0,0,0,.46,1.52,3.88,3.88,0,0,0,1,1.41c.37.26.59.51.59.65a.23.23,0,0,1-.2.23l-.77-.27-.32,0c-.76,0-1,.44-1,1.74a7.28,7.28,0,0,0,2.25,4.81l1.75,1.41a4.09,4.09,0,0,1,1.56,2.74c0,1.11-1.22,2.21-3.31,3l-1.26.45c-1,.36-1.37,1-1.75,2.82a3.11,3.11,0,0,1,1-.19h.73a.79.79,0,0,0,.88-.74v-.34c0-.1.14-.24.34-.34l.53-.27.42-.34a.35.35,0,0,1,.21-.09.23.23,0,0,1,.21.24,1,1,0,0,1-.08.34,3.75,3.75,0,0,0-.2,1.31,3.2,3.2,0,0,0,.62,2.12,2.84,2.84,0,0,1,.11-.49,6.25,6.25,0,0,1,.65-1,5.05,5.05,0,0,0,1-2.32v-.16l-.11-.87a.57.57,0,0,1,.19-.42.41.41,0,0,1,.26-.11c.16,0,.26.1.39.38s.2.34.27.34.39-.35.56-.76a2.13,2.13,0,0,0,.19-.81,1.34,1.34,0,0,0-.11-.49,1.34,1.34,0,0,1-.12-.43c0-.1,0-.15.16-.25a.33.33,0,0,1,.19-.08.43.43,0,0,1,.23.08l.34.23a.59.59,0,0,0,.31.12.82.82,0,0,0,.53-.42,3.25,3.25,0,0,0,.54-1.08c0-.1-.06-.17-.27-.32a2.74,2.74,0,0,1-1.26-2,1.6,1.6,0,0,1,.11-.55l.38-1c.19-.52.3-.79.3-.8l.11,0c.13,0,.21.11.21.29a1.29,1.29,0,0,1-.09.43,2.49,2.49,0,0,0-.16.72.37.37,0,0,0,.4.42,1.64,1.64,0,0,0,.64-.15,7.75,7.75,0,0,1,2.61-.77,2.1,2.1,0,0,1,1.38.5.7.7,0,0,0,.35.15.33.33,0,0,0,.22-.15.34.34,0,0,0,.08-.19.86.86,0,0,0-.23-.5.89.89,0,0,1-.27-.54.19.19,0,0,1,.21-.2c.6,0,1.53,1.89,2.43,4.89.7,2.36.9,2.6,3.16,3.89,1.91,1.08,2.64,2.15,2.64,3.89a21.9,21.9,0,0,1-1.46,6.77,4.72,4.72,0,0,0-.07,3.84c.14.49.23.78.27.88a4.86,4.86,0,0,0,.3.57"/><path class="cls-6" d="M29,114.39a6.33,6.33,0,0,1,.72-1.3,3.67,3.67,0,0,0,.84-1.86v-.61c0-.57.1-.84.33-.84a.23.23,0,0,1,.2.12l.19.3a.31.31,0,0,0,.27.15A.71.71,0,0,0,32,110a2.67,2.67,0,0,0,.44-1.36l0-.42,0-.43c0-.23.09-.33.31-.33s.21.06.34.34.19.31.29.31a.44.44,0,0,0,.32-.23l.3-.46.23-.34.06-.18c0-.1-.08-.2-.29-.35-.71-.51-1-1.29-1.06-2.7a12,12,0,0,0-.19-2.09c0-.07-.25-.62-.69-1.63a10.4,10.4,0,0,1-.46-1.37c-.09-.35-.2-.46-.47-.46a1.9,1.9,0,0,0-1.82,2.05,9.62,9.62,0,0,0,.81,3.09,9,9,0,0,1,.93,3.16c0,1.4-.56,2-2.49,2.7-2.18.78-3.2,1.91-3.58,3.92l.38-.15a5.58,5.58,0,0,1,.53-.19l.61-.15a1.39,1.39,0,0,0,1-.72l.15-.53a.38.38,0,0,1,.23-.27l.34-.15.34-.15.07.15-.15.5a3.34,3.34,0,0,0-.08.89,2.69,2.69,0,0,0,.65,1.93"/><path class="cls-6" d="M8.59,79.17a2.52,2.52,0,0,1,.08.43,8.21,8.21,0,0,1-.15,1l-.07.77a6.24,6.24,0,0,0,.33,2,3,3,0,0,1,.24.87v.16c0,.16-.09.27-.15.27a.84.84,0,0,1-.39-.24,2.13,2.13,0,0,0-1.41-.57,3.72,3.72,0,0,0-.65.08l.19.42.57,1.41L8,87l.83.57a.91.91,0,0,1,.23.23.51.51,0,0,1,.12.25.15.15,0,0,1-.15.13l-.76,0c-.12,0-.21.08-.21.16a5.79,5.79,0,0,0,.33,1.13l.38,1.11.65.61.68.5a.66.66,0,0,1,.32.43c0,.11-.07.21-.13.22l-.38,0c-.12,0-.19.12-.19.31a3.38,3.38,0,0,0,.77,1.48c.59.8,1,1.07,1.68,1.07h.57c.27,0,.44.13.44.35s-.11.28-.37.34c-.53.11-.69.22-.69.46a.84.84,0,0,0,.19.42l.31.42c.25.35.54.58.72.58a.94.94,0,0,0,.56-.35,2.42,2.42,0,0,1,1.23-.84c1.32-.34,1.6-.47,1.6-.78a1,1,0,0,0-.15-.44A3.52,3.52,0,0,1,16,93.52c0-.47-.12-.81-.3-.81s-.19.12-.31.31a1.7,1.7,0,0,1-1.33.8c-1.32,0-2.91-2.06-3.69-4.8A7.6,7.6,0,0,1,10.07,87a10.73,10.73,0,0,1,.28-2.33c.25-1.12.39-1.74.42-1.87l0-.52c0-.94-.87-2.16-2.22-3.1"/><path class="cls-6" d="M11.34,84.46a6.72,6.72,0,0,0-.54,2.48c0,.44.14.8.33.8s.14-.07.21-.19l.42-.76c.07-.13.14-.26.27-.47a1.37,1.37,0,0,0,.26-.56,1.7,1.7,0,0,0-1-1.29"/><path class="cls-6" d="M15.52,101.63l.19.19.31.3c.74.77.85.84,1.21.84a4.16,4.16,0,0,0,1.42-.39c.16-.08.27-.19.27-.26s-.14-.21-.38-.42l-.42-.38a2.16,2.16,0,0,0-1-.55,2.86,2.86,0,0,0-1.58.67"/><path class="cls-6" d="M24.36,108.52a3.78,3.78,0,0,1,.76.38c.34.22.54.35.61.38a1.71,1.71,0,0,0,.6.08,1.31,1.31,0,0,0,.46-.08l.8-.3.76-.27c.2-.07.34-.19.34-.29s-.17-.14-.42-.2a4.74,4.74,0,0,1-.57-.19c-.94-.38-1.07-.43-1.41-.43a2.54,2.54,0,0,0-1.94.93"/><path class="cls-6" d="M34,116.18c.25-.61.43-.72,1.29-.76s1.91-1.8,1.91-3c0-.12,0-.22-.09-.22a.62.62,0,0,0-.26.13,5.32,5.32,0,0,1-.57.34l-1.1.49a2.59,2.59,0,0,0-1.39,2.09,2.64,2.64,0,0,0,.21.92"/><path class="cls-3" d="M17.54,83.09l.38.53a3.58,3.58,0,0,0,.83.6c.11,0,.18-.08.24-.33l.15-.57,0-.63c0-.5-.22-.69-1.26-1-.26-.07-.36-.06-.53-.19a1.06,1.06,0,0,0-.46-.23c-.09,0-.16,0-.16.1l0,.17.19.57Z"/><path class="cls-3" d="M21.62,83.08l-.5.88-.19.21h0c-.2,0-.41-.46-.42-.94l-.07-.76c.06-.31.24-.45.72-.53a2.21,2.21,0,0,0,.76-.23l.61-.42h.06a.17.17,0,0,1,.18.19v.05l-.27.65Z"/><path class="cls-3" d="M20.63,85.68l.61-.3a.68.68,0,0,1,.29-.08c.3,0,.52.22.52.62a5,5,0,0,1-.81,1.86c-.5.91-.88,1.53-1.27,1.53-.55,0-1.32-.87-2.08-2.33a2.48,2.48,0,0,1-.29-1.06c0-.48.21-.73.62-.73a.78.78,0,0,1,.44.12l.34.23a1.79,1.79,0,0,0,1,.3,1.5,1.5,0,0,0,.67-.15"/><path class="cls-6" d="M19.75,86.59l-.42-.07h-.06c-.24,0-.36.14-.36.41a3.59,3.59,0,0,0,.69,1.65.37.37,0,0,0,.29.16c.25,0,.42-.47.55-1.23l.11-.57v-.11c0-.24-.07-.32-.26-.32h-.09"/><path class="cls-3" d="M104.77,96.53A3.31,3.31,0,0,0,107.13,98a4.89,4.89,0,0,0,1-.16,2.08,2.08,0,0,1,.51-.08c.19,0,.26.07.26.24a2.59,2.59,0,0,1-.2.71,3.62,3.62,0,0,0-.23.68l-.15.8-.38.68-.53.5-.15.16V102a2.05,2.05,0,0,1-1,2l-.27.19-.08.31a9.22,9.22,0,0,1-.38,1.33,7.8,7.8,0,0,1-.72,1.07,6.91,6.91,0,0,0-1,1.56c-.16.38-.28.49-.53.49s-.75-.47-.81-1a1.66,1.66,0,0,1-.19.23l-.45.3-.73.49a5.91,5.91,0,0,0-.61.46l-.42.42a.33.33,0,0,1-.22.11c-.19,0-.39-.33-.58-1l-.38-1.25a4.26,4.26,0,0,1-.15-1.23,2.65,2.65,0,0,1,.27-1.36,4.72,4.72,0,0,0-1.37.27,1.3,1.3,0,0,1-.33.07c-.13,0-.2-.09-.2-.23a2.36,2.36,0,0,1,.15-.56l.5-1.29a3.22,3.22,0,0,1,2.61-1.92,3.32,3.32,0,0,1,1,.2,2,2,0,0,0,.58.12.76.76,0,0,0,.79-.73.57.57,0,0,0-.31-.5c-.06,0-.52-.17-1.37-.42a3.14,3.14,0,0,1-1.68-1.26c-.52-.6-.73-.77-.92-.77s-.22.1-.22.27l0,.51v.24a7,7,0,0,1-1.08,3.46l-1.07,1.94a4.74,4.74,0,0,0-.72,2.32c0,.77.33,1.45.76,1.56l.57.15a.41.41,0,0,1,.19.12.36.36,0,0,1,.12.22.68.68,0,0,1-.19.35c-.07.07-.3.37-.69.87a3.25,3.25,0,0,1-1.86,1.41,3.69,3.69,0,0,1-2.55,2.21l-.15.26a3.09,3.09,0,0,1-2.1,1.53h-.15a3,3,0,0,1-1.33,1.94,10.47,10.47,0,0,0-.87.64,1.52,1.52,0,0,0-.19.34c-.17.38-.33.54-.54.54-.41,0-.74-.38-1-1.11l-.34.23c-.43.31-.67.47-.72.49a8.59,8.59,0,0,1-1.33.38,3.56,3.56,0,0,0-1.94,1l-.34.57-.16.07c-.19,0-.4-.26-.49-.6a9.35,9.35,0,0,1-.34-2.14c0-1.35.45-2.23,1.83-3.61v-.33c0-2.1,1.6-3.53,4-3.53H86l1.29.08h.12a3.15,3.15,0,0,0,2-.84c.93-.76,1.2-1.23,1.2-2.08a5.91,5.91,0,0,0-.37-1.53,5.39,5.39,0,0,1,2.44-6.4c.4-.28.7-.65.7-.86s0-.16-.11-.16a1,1,0,0,0-.48.3,4.38,4.38,0,0,1-.91.57l-.61.3-.69.27c-.21.08-.32.2-.32.34a1,1,0,0,0,.09.35.9.9,0,0,1,.08.28,1.08,1.08,0,0,1-.19.44l-.53.88a3.23,3.23,0,0,1-1.56,1.52c-.43,1.25-1,1.89-1.94,2-.72,1.45-1.35,2-2.63,2.09a4.67,4.67,0,0,1-1.14,1.75,3.76,3.76,0,0,0-.49.61c-.3.53-.32.57-.46.57a1.89,1.89,0,0,1-.87-.57,2.27,2.27,0,0,1-.34-.46l-.34-.61c-.11-.2-.23-.29-.37-.29l-.24,0-.84.12A2.66,2.66,0,0,0,77,110l-.46.69a.23.23,0,0,1-.18.11c-.34,0-.55-.75-.55-2a3.91,3.91,0,0,1,.54-2.34l1.07-1.48a1.06,1.06,0,0,0,.23-.58.77.77,0,0,0-.19-.49,1.24,1.24,0,0,0-.61-.46l-.8-.11c-.14,0-.2-.06-.2-.12a.47.47,0,0,1,.12-.26,3.65,3.65,0,0,1,1-.84,4.18,4.18,0,0,1,2.2-.8,3.72,3.72,0,0,1,2,.65l1.1.72a1,1,0,0,0,.53.16c.51,0,.9-.3,1.25-1a3.66,3.66,0,0,0,.5-1.76A2.37,2.37,0,0,0,82,97.6a3.24,3.24,0,0,0-2,.76,1.25,1.25,0,0,0-.38.42l-.3.69c-.07.16-.18.26-.27.26s-.62-.55-1-1.26a8.25,8.25,0,0,1-.53-1.37,6.23,6.23,0,0,1-.32-1.9l.06-1a3.83,3.83,0,0,1-.69-2.36,4.26,4.26,0,0,1,.27-1.34,2.82,2.82,0,0,1-.42-1.7l0-.48.11-.53.08-.46c-.37-.48-.47-.8-.84-2.47a5.11,5.11,0,0,0-.49-1.6.55.55,0,0,1-.12-.23c0-.22.53-.42,1.14-.42l.54,0a1.77,1.77,0,0,1-.16-.77,4.75,4.75,0,0,1,.28-1.52,2.89,2.89,0,0,0,.24-.93,3.64,3.64,0,0,0-.17-1.16l-.3-.76a1.09,1.09,0,0,1-.1-.39c0-.08.05-.1.19-.1a6.44,6.44,0,0,1,3.29,1.87,4.09,4.09,0,0,1,1.48,3.47l-.06.83a3.4,3.4,0,0,1,1.49,2.48,2,2,0,0,1-.77,1.56,3.29,3.29,0,0,0-1.26,2.87c0,2,.6,3.11,1.72,3.11s1.74-1.06,1.86-2.63l.11-1.45c0-.38.09-.83.19-1.37a7.1,7.1,0,0,0,.12-1c0-.51-.34-1.16-1.33-2.32s-1.43-1.92-1.43-2.9a1.91,1.91,0,0,1,1.91-2,1.35,1.35,0,0,1,.74.21A3.65,3.65,0,0,1,85.39,78c.3-.73.61-1.25.76-1.25s.13.05.23.15a3.67,3.67,0,0,0,.5.42l.38.27a3.47,3.47,0,0,1,.34.34A3.67,3.67,0,0,1,88.78,76c.53-.52.73-.68.83-.68a.41.41,0,0,1,.27.19l.46.61.65.73A2,2,0,0,1,91.45,78l.38-.23.61-.34a4.35,4.35,0,0,0,.46-.31.53.53,0,0,1,.24-.12c.06,0,.14.11.18.27l.23.87.5,1a1.9,1.9,0,0,1,.19,1v.24h.26c.75,0,1.4.89,1.4,1.91a5.52,5.52,0,0,1-2.49,4,3.06,3.06,0,0,0-.16,1c0,3,.8,3.66,5.45,4.36a25.66,25.66,0,0,1,3.12.65l3,1a7.54,7.54,0,0,0,2.26.5c.57,0,.88-.16.88-.46,0-.52-.76-1-3.1-1.9l-3.31-1.29c-3.37-1.32-5-3.37-5-6.4a6,6,0,0,1,6.17-6.17,12.69,12.69,0,0,1,4.5,1c2.4.88,2.53.91,2.79.91.46,0,.72-.32.79-1s.21-.8.53-.8c.47,0,1,.43,1.34,1.15a4.54,4.54,0,0,1,.49,2,2.18,2.18,0,0,1-1.86,2.32,3.7,3.7,0,0,1-3.07,1.58c-1.52,0-2.27-.3-4.86-1.92a3.26,3.26,0,0,0-2-.72,1.43,1.43,0,0,0-1.58,1.33c0,.7.56,1.16,1.83,1.49a2,2,0,0,1,1.26.64,2.47,2.47,0,0,1,.63-.09,6.72,6.72,0,0,1,4.05,1.77c2.35.73,4.43,3.26,4.43,5.38A4.53,4.53,0,0,1,107.71,97a15.07,15.07,0,0,1-2.94-.47"/><path class="cls-6" d="M103.4,107.07l.15-.42.15-.54a3.22,3.22,0,0,1,.42-.64,3.05,3.05,0,0,0,.58-1.89,1.58,1.58,0,0,0-.2-.74.89.89,0,0,1-.12-.35.31.31,0,0,1,.08-.18.24.24,0,0,1,.15-.11h0a.68.68,0,0,1,.39.27c.16.2.3.31.39.31s.35-.29.45-.72c.05-.23.08-.36.08-.38a3.62,3.62,0,0,0-.34-1.07.94.94,0,0,1-.11-.39.23.23,0,0,1,.21-.25,1,1,0,0,1,.51.32.46.46,0,0,0,.29.15c.24,0,.41-.24.59-.84a3.44,3.44,0,0,0,.15-.6c0-.11,0-.18-.14-.18H107l-.45,0a3.24,3.24,0,0,1-2.14-1l-1.07-1.29a13.79,13.79,0,0,1-1-1.26l-.88-.57a.43.43,0,0,1-.23-.31c0-.14.14-.24.36-.24a9.08,9.08,0,0,1,2,.7,11.88,11.88,0,0,0,3.86.84,3.31,3.31,0,0,0,3.32-3.26,4.85,4.85,0,0,0-1.51-3.14,1.37,1.37,0,0,0-.7-.47.21.21,0,0,0-.21.23,1.2,1.2,0,0,0,.12.43,1,1,0,0,1,.07.35c0,.17-.06.27-.18.27s-.49-.39-.69-1.08c-.25-.85-.75-1.36-1.91-1.94a4.11,4.11,0,0,0-1.2-.43c-.07,0-.13.07-.13.17a.86.86,0,0,0,.15.45,1.88,1.88,0,0,1,.31.73v0c0,.15-.08.23-.21.23s-.3-.06-.86-.92a4.4,4.4,0,0,0-1.71-1.29,1.94,1.94,0,0,0-.65-.15h0c-.14,0-.24.07-.24.15a1.61,1.61,0,0,0,.17.35l.06.21a.19.19,0,0,1-.18.21,4.1,4.1,0,0,1-1.49-1.22,3.8,3.8,0,0,1-1-2.28,3,3,0,0,1,2.95-2.75,2.2,2.2,0,0,1,1,.19l1.33.68,1.56,1a6.24,6.24,0,0,0,2.87,1,4.17,4.17,0,0,0,1.2-.24c.37-.1.61-.25.61-.39l0,0-.13-.08-.84-.07a7.27,7.27,0,0,1-2.36-1.07l-1.75-1.14-1.56-.65c-.12,0-.19-.12-.19-.2a.17.17,0,0,1,.18-.14l.43.08,1.45.42a10.49,10.49,0,0,1,1.75.8,8.07,8.07,0,0,0,3.38,1.22,1.44,1.44,0,0,0,1.53-1.42,5.33,5.33,0,0,0-.15-1.09,1.51,1.51,0,0,0-.23-.5c-.07-.1-.14-.15-.19-.15s-.17.11-.17.31l0,.26,0,.22c0,.7-.27,1-1,1a10.69,10.69,0,0,1-3.42-1,10.89,10.89,0,0,0-4.08-1,5.34,5.34,0,0,0-5.38,5c0,2.3,1.53,4.07,4.66,5.35l3.23,1.33c2.68,1.1,3.66,1.89,3.66,2.93,0,.87-.81,1.43-2.07,1.43a8.58,8.58,0,0,1-2.47-.55,22.41,22.41,0,0,0-6.73-1.37,8.2,8.2,0,0,0-6.44,2.47c-.21.22-.34.29-.52.29a1.12,1.12,0,0,1-.54-.22,1.84,1.84,0,0,0-.84-.27,1.4,1.4,0,0,0-.91.5l-.38.49a.5.5,0,0,1-.34.23c-.28,0-.76-.47-1.07-1a3.57,3.57,0,0,1-.38-1,5.79,5.79,0,0,1-.08-1l0-.71.12-.76c.06-.37.1-.58.12-.65a.2.2,0,0,1,.18-.15c.2,0,.28.18.28.6v.41c0,1.08.43,2.08.9,2.08s.7-.67,1-2c.06-.26.16-.42.29-.42s.24.19.36.76a3.31,3.31,0,0,0,.57,1.22.66.66,0,0,0,.43.31c.31,0,.51-.47.67-1.56.06-.43.19-.69.34-.69a.2.2,0,0,1,.16.08s.12.17.27.42a1,1,0,0,0,.42.38,1.12,1.12,0,0,0,.44.15.55.55,0,0,0,.36-.15c.17-.15.27-.27.27-.31a.77.77,0,0,0-.23-.34,3.71,3.71,0,0,1-.68-1.26l-.34-.87a.54.54,0,0,0-.19-.27l-.12,0-.22,0-.8.23-.25,0a.17.17,0,0,1-.18-.18.77.77,0,0,1,.31-.43,5.56,5.56,0,0,0,1.75-3.92A4,4,0,0,1,93.23,83c.1-.14.19-.23.24-.23s.23.11.23.34a1.56,1.56,0,0,1-.12.54,1.34,1.34,0,0,0-.08.46v.15l.08.23.42-.15.45-.53a2.81,2.81,0,0,0,.5-1.56,1.24,1.24,0,0,0-.31-.88c-.24-.29-.41-.4-.58-.4l-.26,0-.27,0c-.25,0-.37-.07-.37-.22l.07-.29,0-.42-.23-1-.19-.46-.12-.38-.27.19-.57.34a1.91,1.91,0,0,0-.46.42c-.54.66-.57.69-.79.69s-.22,0-.22-.14l0-.16a3.93,3.93,0,0,0,.11-.79,3.62,3.62,0,0,0-1.06-2.22A3.43,3.43,0,0,0,88.28,79v.46c0,.17-.06.26-.17.26h0a.45.45,0,0,1-.27-.19l-.46-.61a6.11,6.11,0,0,0-.61-.5l-.3-.26-.15.3a4,4,0,0,0-.53,1.83c0,.51-.06.66-.18.66a.53.53,0,0,1-.24-.09c-.58-.32-.63-.34-.88-.34a1.13,1.13,0,0,0-1.15,1.21A3,3,0,0,0,83.79,83c.35.62.87,1.19,1.1,1.19.07,0,.08,0,.08-.23v-.08l0-.65-.08-.5v-.06c0-.15.06-.21.17-.21q.52,0,.9,3a5.88,5.88,0,0,0,1.48,3.69c.2.18.31.33.31.41a.14.14,0,0,1-.15.12,1.19,1.19,0,0,1-.5-.19.83.83,0,0,0-.41-.12,1.08,1.08,0,0,0-.88.92l-.34,2.17-.27,3a8.1,8.1,0,0,0,.23,2.28,9.82,9.82,0,0,1,.27,1.8,4.9,4.9,0,0,1-3.77,4.78l-2.44.72c-1.52.45-2.27,1.45-2.47,3.31a1.76,1.76,0,0,1,1.11-.45l.72-.11a2,2,0,0,0,.65-.19,3,3,0,0,0,.42-.42l.65-.72c.24-.28.46-.43.6-.43s.16.1.16.22a1.39,1.39,0,0,1-.27.63,1.82,1.82,0,0,0-.28,1,2.34,2.34,0,0,0,.62,1.49,2.57,2.57,0,0,1,.15-.46,7.73,7.73,0,0,1,.57-.8,4.18,4.18,0,0,0,.91-1.72c0-.59.06-.78.21-.78s.15,0,.21.36a.48.48,0,0,0,.11.23.4.4,0,0,0,.23.15.83.83,0,0,0,.3-.15,2.73,2.73,0,0,0,.61-.53,3.17,3.17,0,0,0,.57-1.41v-.49c0-.13.05-.24.13-.24s.28.2.41.42.14.19.24.19h0a.57.57,0,0,0,.34-.15,2.28,2.28,0,0,0,.77-1.43l0-.7-.15-.58v0a.21.21,0,0,1,.18-.22c.17,0,.36.24.62.8.12.26.23.39.35.39s.32-.14.68-.65l.34-.49a.67.67,0,0,0,.11-.38.68.68,0,0,0-.11-.38l-.31-.46a.75.75,0,0,1-.08-.38,3.74,3.74,0,0,1,.57-1.79,9,9,0,0,0,.49-1c.06-.16.13-.23.21-.23s.13.09.13.19l0,.42v.61c.05.14.14.19.33.19a1.29,1.29,0,0,0,.4-.08l1-.34a6.5,6.5,0,0,0,.88-.42c1.49-.83,2-1,2.69-1a4.63,4.63,0,0,1,1.81.54,1,1,0,0,0,.39.12.46.46,0,0,0,.33-.19.46.46,0,0,0,.11-.29,1,1,0,0,0-.15-.47,1.8,1.8,0,0,1-.23-.57.16.16,0,0,1,.18-.17.42.42,0,0,1,.29.2q.17.27.87,1.52a4.52,4.52,0,0,0,2.44,2.32l1.67.38c.52.12.65.32.65,1a3.31,3.31,0,0,1-1.52,2.84l-1.37.88a2.52,2.52,0,0,0-.91,1.92,10.38,10.38,0,0,0,.27,2l.27-.26.65-.38.57-.57.3-.84.3-.76c.15-.37.32-.61.44-.61s.21.21.21.58v.25a2.9,2.9,0,0,0,.5,1.61"/><path class="cls-6" d="M80.85,117.94c0-1.81.66-2.6,3.28-3.93,5.17-2.62,8-5,8-6.86a8.27,8.27,0,0,0-.46-2.05,6.64,6.64,0,0,1-.33-1.65,4.66,4.66,0,0,1,1.59-2.91l.72-.65a2,2,0,0,0,.69-1.2v-.4c0-.38.15-.52.54-.53l.34,0,.29-.08a.39.39,0,0,1,.32.19l.19.31.27.3a.38.38,0,0,0,.24.16.84.84,0,0,0,.29-.11.94.94,0,0,1,.46-.14c.2,0,.3.11.3.33a5.89,5.89,0,0,1-1.37,3c-1.46,2-1.94,3-1.94,4.31a4.13,4.13,0,0,0,.84,2.58.67.67,0,0,1,.15.28,1,1,0,0,1-.27.48c-.07.08-.14.18-.23.31-.3.44-.51.61-.71.61a.42.42,0,0,1-.36-.31l-.15-.42a.26.26,0,0,0-.21-.2s-.09.06-.17.16a.68.68,0,0,0-.15.42v.65a1.3,1.3,0,0,1-.27.76,3.19,3.19,0,0,1-.53.57.72.72,0,0,1-.3.19c-.11,0-.22-.12-.27-.31l-.23-.76c0-.11-.11-.19-.19-.19s-.23.21-.27.53a2.74,2.74,0,0,1-.45,1.6l-.53.49a.92.92,0,0,1-.48.28.26.26,0,0,1-.24-.13l-.27-.57a.19.19,0,0,0-.17-.12c-.15,0-.27.3-.32.88a2.93,2.93,0,0,1-1.18,2.51,2.11,2.11,0,0,0-1,1.07,2.44,2.44,0,0,1-.46-1.52,1.38,1.38,0,0,1,.16-.72,1.61,1.61,0,0,0,.25-.63.15.15,0,0,0-.14-.17s-.1.05-.19.15a2,2,0,0,1-.49.38,1.48,1.48,0,0,0-1,1.29,1.94,1.94,0,0,1-1.75,1.71c-1.29.26-1.37.3-1.83.73Z"/><path class="cls-6" d="M78.39,78.67v.95a2.41,2.41,0,0,1-.08.62,4.15,4.15,0,0,0-.15.86,3.07,3.07,0,0,0,.53,1.84,2.84,2.84,0,0,1,.39,1.28c0,.15-.06.24-.17.24a.24.24,0,0,1-.19-.11l-.3-.42c-.24-.33-.47-.42-1.09-.42l-.66,0a8.28,8.28,0,0,1,.46,1.33c.31,1.24.35,1.33,1,1.94s.74.69.74.91a.29.29,0,0,1-.26.31l-.25,0-.15,0c-.21,0-.4.38-.4.81a2.73,2.73,0,0,0,.24,1,1.55,1.55,0,0,0,.26.46l.38.38a.54.54,0,0,1,.15.39c0,.19-.11.34-.23.34a.88.88,0,0,1-.34-.12.62.62,0,0,0-.27-.08c-.17,0-.25.1-.25.31l.06.57.23,1a1.75,1.75,0,0,0,.42.73,1.81,1.81,0,0,0,.57.46l.76.34a.37.37,0,0,1,.11.3.26.26,0,0,1-.25.27L79.3,95l-.39,0c-.39,0-.41,0-.41.32a2.41,2.41,0,0,0,.08.59l.15.61c.16.64.37,1,.6,1a.68.68,0,0,0,.28-.15,4.7,4.7,0,0,1,2.35-.8,7.69,7.69,0,0,1,1.84.19,1.4,1.4,0,0,0,.36.09c.09,0,.12-.09.13-.43l.08-.69.15-1.18.11-.88v-.5l-.31.27a2.23,2.23,0,0,1-1.72.8c-1.75,0-2.76-2-2.76-5.4a36.59,36.59,0,0,1,.6-5.72A6.74,6.74,0,0,0,80.56,82a4.16,4.16,0,0,0-2.18-3.36"/><path class="cls-6" d="M81,87.2l.34-.34.34-.31a1.77,1.77,0,0,0,.51-1.17,1.2,1.2,0,0,0-.13-.54c-.13-.29-.39-.54-.54-.54s-.25.31-.3.81l-.08.57-.11.57,0,.57Z"/><path class="cls-6" d="M77.62,102.77c.39.14.47.21.87.68a1.65,1.65,0,0,0,1.52.76,1.94,1.94,0,0,0,.54-.07l.49-.15.38-.12c.18,0,.31-.13.31-.19s-.3-.33-.76-.64a7.36,7.36,0,0,0-.91-.53,2,2,0,0,0-.87-.24,2.79,2.79,0,0,0-1.57.5"/><path class="cls-6" d="M82.76,113.49a2.5,2.5,0,0,1,2.68-2.24c.74,0,1.17.15,1.17.4s-.32.46-1,.83l-1.11.61a16.42,16.42,0,0,1-1.68.84Z"/><path class="cls-6" d="M98.26,104.26c.54-.11.72-.25,1-.26l.69,0a2.22,2.22,0,0,0,.46-.31l.53-.38c.76-.52.8-.55.8-.72s-.31-.31-1-.31c-1.2,0-1.93.56-2.52,1.94"/><path class="cls-3" d="M86.76,81.07l.53.34a5,5,0,0,0,.76.42c.59.24.8.33.8.55a1.6,1.6,0,0,1-.08.43,2.36,2.36,0,0,0-.11.53c-.05.52-.37.65-.57.65s-.53-.4-.95-1.14a8.84,8.84,0,0,1-.61-1.52l0-.15c0-.09.06-.15.16-.15"/><path class="cls-3" d="M91.9,82.4l-.87.88a3.28,3.28,0,0,0-.38.84.51.51,0,0,1-.27.11h-.06a.39.39,0,0,1-.4-.38l0-.65,0-.65v0a.39.39,0,0,1,.34-.42l.81-.22.83-.42a1.31,1.31,0,0,1,.36-.15.21.21,0,0,1,.18.22.6.6,0,0,1-.08.24Z"/><path class="cls-3" d="M88.06,85l.57.42a1,1,0,0,0,.51.13,2.35,2.35,0,0,0,.9-.24l.5-.23a.75.75,0,0,1,.3-.08c.31,0,.55.32.55.73a4,4,0,0,1-1,2l-.42.88c-.33.48-.55.65-.82.65-.45,0-.67-.26-1.35-1.6a4.82,4.82,0,0,1-.69-2c0-.4.21-.68.51-.68a.72.72,0,0,1,.44.07"/><path class="cls-6" d="M88.55,87.09l0,.73a.68.68,0,0,0,.55.65c.35,0,.6-.53.74-1.34A4.08,4.08,0,0,0,90,86.6c0-.28-.09-.36-.45-.36h-.64c-.24,0-.33.19-.33.67"/><path class="cls-3" d="M45.68,69.85H49.4v7.64h4.38V69.93H64.84v7.57h4.38V69.93h3.73V50.19H68.68L68.53,50a2.37,2.37,0,0,0-2.06-1.16,2.26,2.26,0,0,0-2,1.39H61.39a2.24,2.24,0,0,0-2.06-1.39,2.29,2.29,0,0,0-2.16,1.39h-3.3a2.22,2.22,0,0,0-2.11-1.38,2.08,2.08,0,0,0-2,1.38h-4Z"/><rect class="cls-5" x="47.27" y="51.81" width="24.21" height="16.59"/><path class="cls-6" d="M49.79,55.61a1.15,1.15,0,1,0,1.15,1.15,1.15,1.15,0,0,0-1.15-1.15"/><path class="cls-7" d="M49.79,58.07a1.31,1.31,0,1,1,1.31-1.31A1.31,1.31,0,0,1,49.79,58.07Zm0-2.3a1,1,0,1,0,1,1A1,1,0,0,0,49.79,55.76Z"/><path class="cls-6" d="M68.8,55.61a1.15,1.15,0,1,0,1.15,1.15,1.15,1.15,0,0,0-1.15-1.15"/><path class="cls-7" d="M68.8,58.07a1.31,1.31,0,1,1,1.31-1.31A1.31,1.31,0,0,1,68.8,58.07Zm0-2.3a1,1,0,1,0,1,1A1,1,0,0,0,68.8,55.76Z"/><path class="cls-6" d="M49.79,64.63a1.15,1.15,0,0,0-1.15,1.15,1.17,1.17,0,0,0,1.19,1.15,1.13,1.13,0,0,0,1.11-1.15,1.15,1.15,0,0,0-1.15-1.15"/><path class="cls-7" d="M49.83,67.09a1.33,1.33,0,0,1-1.35-1.31,1.31,1.31,0,0,1,2.62,0A1.29,1.29,0,0,1,49.83,67.09Zm0-2.3a1,1,0,0,0-1,1,1,1,0,0,0,1,1,1,1,0,0,0,1-1A1,1,0,0,0,49.79,64.79Z"/><path class="cls-6" d="M68.8,64.63a1.15,1.15,0,1,0,1.15,1.15,1.15,1.15,0,0,0-1.15-1.15"/><path class="cls-7" d="M68.8,67.09a1.31,1.31,0,1,1,1.31-1.31A1.31,1.31,0,0,1,68.8,67.09Zm0-2.3a1,1,0,1,0,1,1A1,1,0,0,0,68.8,64.79Z"/><path class="cls-6" d="M53.4,61.13a7.28,7.28,0,0,0,6,2.92c2.25,0,3.81-.81,5.63-2.92a7.67,7.67,0,0,0-11.6,0"/><path class="cls-3" d="M54.55,61.13a7.11,7.11,0,0,1,4.65-1.77,6.82,6.82,0,0,1,4.61,1.81,5.88,5.88,0,0,1-4.64,2,6.44,6.44,0,0,1-4.62-2"/><path class="cls-6" d="M56.51,60.75a4.66,4.66,0,0,0,2.62.84,4.75,4.75,0,0,0,2.79-.84,6.37,6.37,0,0,0-2.75-.66,5.55,5.55,0,0,0-2.66.66"/><rect class="cls-3" x="46.93" y="52.66" width="24.89" height="0.85"/><path class="cls-7" d="M71.87,53.56h-25v-.95h25ZM47,53.45H71.77v-.74H47Z"/><path class="cls-6" d="M50.75,51.57V54a1,1,0,0,0,1,1,.93.93,0,0,0,1.05-1V51.61c0-.9-.37-1.46-1-1.46a1.28,1.28,0,0,0-.46.12,1.5,1.5,0,0,0-.27.15.94.94,0,0,0-.23.31,1.32,1.32,0,0,0-.15.42"/><path class="cls-6" d="M58.24,53.53V54a1,1,0,0,0,1,1,.93.93,0,0,0,1.05-1V51.61c0-.9-.37-1.47-1-1.47s-1.12.56-1.12,1.43"/><path class="cls-6" d="M65.49,51.57V54a1,1,0,0,0,1,1,.93.93,0,0,0,1.05-1V51.61c0-.9-.37-1.46-1-1.46a1.27,1.27,0,0,0-.46.12,1.38,1.38,0,0,0-.27.15,1,1,0,0,0-.23.31,1.31,1.31,0,0,0-.15.42"/><rect class="cls-6" x="50.21" y="71.65" width="2.27" height="2.92"/><rect class="cls-6" x="50.21" y="75.23" width="2.27" height="0.92"/><rect class="cls-6" x="65.65" y="71.65" width="2.27" height="2.92"/><rect class="cls-6" x="65.65" y="75.23" width="2.27" height="0.92"/><path class="cls-8" d="M522.2,4.27h-7.37L495.27,55.05h9.59l4.75-12.66h18l4.91,12.66h10Zm-9.9,30.61,3.68-10c1.38-3.91,2.15-6.14,2.61-7.9h.15c.46,1.69,1.15,4,2.53,7.83l3.53,10Z"/><path class="cls-8" d="M619.56,17.85c-10.36,0-16.34,8.21-16.34,19.1,0,9.82,5.37,18.87,18.57,18.87a24.3,24.3,0,0,0,12.81-3.38l-2.76-6.29a18.14,18.14,0,0,1-9.13,2.45c-6.06,0-10.05-3.6-10.28-9.2h23.25V37.25c0-12-5.9-19.41-16.11-19.41M612.35,33c.07-4.37,2.53-8.21,7.06-8.21,4.83,0,6.9,4.06,7,8.21Z"/><path class="cls-8" d="M777.93,17.85c-10.36,0-16.34,8.21-16.34,19.1,0,9.82,5.37,18.87,18.57,18.87A24.3,24.3,0,0,0,793,52.44l-2.76-6.29a18.14,18.14,0,0,1-9.13,2.45C775,48.6,771,45,770.79,39.4H794V37.25c0-12-5.91-19.41-16.11-19.41M770.72,33c.07-4.37,2.53-8.21,7.06-8.21,4.83,0,6.9,4.06,7,8.21Z"/><path class="cls-8" d="M851,7.64l-9.13,2.69v8.44h-6.52V25.9h6.52V46.08c0,6.06,3.92,9.74,10.36,9.74A20.79,20.79,0,0,0,862.84,53l-2.76-6.29a10.27,10.27,0,0,1-5.52,1.76c-2.38,0-3.53-1.23-3.53-4.61V25.9h.39v0h3c4.1,0,5.27-2.15,5.83-3.19l1.8-3.59.07-.14-.07-.14H851.41v-.07H851Z"/><path class="cls-8" d="M587,17.84c-8.51,0-13.73,4.52-13.73,11,0,12.12,17,9.82,17,16,0,2.76-2.68,3.84-6.37,3.84a18.56,18.56,0,0,1-9.89-3l-.41,1L572,52.75a26.24,26.24,0,0,0,12.53,3.07c7.83,0,14.73-3.3,14.73-11.28,0-12.66-17-10.43-17-16.18,0-2.38,2.07-3.3,5.14-3.3a24.59,24.59,0,0,1,8.58,1.64l1.7-6.51v-.59A31.69,31.69,0,0,0,587,17.84"/><path class="cls-8" d="M653.78,17.84c-8.52,0-13.73,4.52-13.73,11,0,12.12,17,9.82,17,16,0,2.76-2.69,3.84-6.37,3.84a18.5,18.5,0,0,1-9.53-2.77L639.3,53a26.52,26.52,0,0,0,12,2.79c7.83,0,14.73-3.3,14.73-11.28,0-12.66-17-10.43-17-16.18,0-2.38,2.07-3.3,5.14-3.3a24.51,24.51,0,0,1,8.52,1.62L664.44,20v-.36a31.73,31.73,0,0,0-10.66-1.76"/><path class="cls-8" d="M684.08,17.84c-8.51,0-13.73,4.52-13.73,11,0,12.12,17,9.82,17,16,0,2.76-2.69,3.84-6.37,3.84a18.53,18.53,0,0,1-9.63-2.83L669.5,53a26.45,26.45,0,0,0,12.13,2.84c7.83,0,14.73-3.3,14.73-11.28,0-12.66-17-10.43-17-16.18,0-2.38,2.07-3.3,5.14-3.3a24.5,24.5,0,0,1,8.47,1.61l1.81-6.91v-.15a31.71,31.71,0,0,0-10.66-1.76"/><path class="cls-8" d="M556.84,17.84c-8.51,0-13.73,4.52-13.73,11,0,12.12,17,9.82,17,16,0,2.76-2.68,3.84-6.37,3.84a18.57,18.57,0,0,1-9.89-3l0,0,3.49,9.25a27.58,27.58,0,0,0,7,.91c7.82,0,14.73-3.3,14.73-11.28,0-12.66-17-10.43-17-16.18,0-2.38,2.07-3.3,5.14-3.3a24.52,24.52,0,0,1,8.51,1.62l1.77-6.76v-.31a31.71,31.71,0,0,0-10.66-1.76"/><path class="cls-8" d="M701.27,17.2l-.18.09V55.05h9.13V29.43c2.69-2.15,5.76-3.61,8.67-3.61,4.68,0,5.37,3.53,5.37,7.75V55.05h9.21V30.81l-.08-1.38c2.61-2.15,5.68-3.61,8.59-3.61,4.68,0,5.52,3.38,5.52,7.67V55.05h9.13V31c0-9.59-5.68-13.12-12-13.12-4.07,0-8.67,1.91-13,5.6-1.76-3.61-5.22-5.6-9.67-5.6s-8.59,2.15-12.2,5h-.34a7,7,0,0,0-3.25-3.21l-4.65-2.32Z"/><path class="cls-8" d="M799.26,17.2l-.18.09V55.05h9.13V29.66c2.69-2.22,5.91-3.84,8.9-3.84,4.68,0,5.6,3.61,5.6,8.05V55.05h9.21V31c0-10.36-5.91-13.19-11.66-13.19-4.53,0-8.59,2-12.43,5h-.49a7,7,0,0,0-3.25-3.21l-4.65-2.32Z"/><path class="cls-8" d="M168.45,3.69c-16.27,0-26.7,11.66-26.7,26.31,0,14.81,9,25.47,25.55,25.47a32.45,32.45,0,0,0,15.62-3.78,13.82,13.82,0,0,1-2.13-7.49,23.87,23.87,0,0,1-12.42,3.52c-10.36,0-16.8-7.36-16.8-18,0-9.9,5.9-18.33,17.11-18.33a27.2,27.2,0,0,1,13,3.3V6.14a33.81,33.81,0,0,0-13.27-2.46"/><path class="cls-8" d="M293.08,0H284V52.55a26,26,0,0,0,11.89,2.53c12.35,0,21.71-7.36,21.71-20.1,0-11.51-7.75-17.88-17.42-17.88a23.58,23.58,0,0,0-7.05,1.07Zm4.22,47.49a13.94,13.94,0,0,1-4.22-.62v-21a13.17,13.17,0,0,1,5.52-1.15c6,0,9.51,4.45,9.51,10.82,0,7.13-4.22,12-10.82,12"/><path class="cls-8" d="M400.12.39h-9.2V18A27.31,27.31,0,0,0,386,17.5c-11.51,0-19.87,7.9-19.87,19.41,0,12,8.82,18.57,20.64,18.57a32.89,32.89,0,0,0,13.35-2.69Zm-13.5,47.49c-6.6,0-11.12-4.06-11.12-11.12,0-7.44,4.68-11.74,11-11.74a18,18,0,0,1,4.38.54V47.27a13.89,13.89,0,0,1-4.3.61"/><path class="cls-8" d="M457.35,17.5C447,17.5,441,25.71,441,36.6c0,9.82,5.37,18.87,18.57,18.87a24.3,24.3,0,0,0,12.81-3.38l-2.76-6.29a18.14,18.14,0,0,1-9.13,2.46c-6.06,0-10.05-3.61-10.28-9.21h23.25V36.91c0-12-5.91-19.41-16.11-19.41m-7.21,15.19c.07-4.37,2.53-8.21,7.06-8.21,4.83,0,6.9,4.06,7,8.21Z"/><path class="cls-8" d="M200.57,17.5a28.5,28.5,0,0,0-14,3.61l3,5.9A20.53,20.53,0,0,1,199,24.48c4.22,0,7,1.84,7,6.06v1.15l-6.22.23A22.44,22.44,0,0,0,190.44,34a10.36,10.36,0,0,0-6.14,9.89c0,7,5.14,11.58,12,11.58a14.93,14.93,0,0,0,10.43-4.22h.77a7.93,7.93,0,0,0,2.51,2l4.78,2.39.18.1.18-.1V34.24h-.06V30.69c0-8.75-4.83-13.19-14.58-13.19M199,48.26c-3.3,0-5.37-1.84-5.37-5a4.38,4.38,0,0,1,2.22-4.14A11.52,11.52,0,0,1,201.1,38l4.7-.15v7.61l0,.29A11.1,11.1,0,0,1,199,48.26"/><path class="cls-8" d="M222,16.71l-.18.09V54.55H231V28.93c2.68-2.15,5.75-3.61,8.67-3.61,4.68,0,5.37,3.53,5.37,7.75V54.55h9.21V30.31l-.08-1.38c2.61-2.15,5.68-3.61,8.59-3.61,4.68,0,5.52,3.38,5.52,7.67V54.55h9.13V30.47c0-9.59-5.68-13.12-12-13.12-4.07,0-8.67,1.91-13,5.6-1.76-3.61-5.22-5.6-9.67-5.6s-8.59,2.15-12.2,5h-.34a7,7,0,0,0-3.25-3.21l-4.65-2.32Z"/><path class="cls-8" d="M341.64,17.68a13.49,13.49,0,0,0-10,4.81l-1-4.07h-7.75V54.7h9.13V29.08c2.81-3.45,5.59-4.47,7.89-4.47a9.11,9.11,0,0,1,5.61,2.1V18.36a11.64,11.64,0,0,0-3.92-.68"/><path class="cls-8" d="M355.64,1.54A5.47,5.47,0,0,0,350,7.07a5.41,5.41,0,0,0,5.6,5.45,5.49,5.49,0,1,0,0-11m4.6,16.88H351V54.71h9.2Z"/><path class="cls-8" d="M440.69,16.1H420.9c-9.89,0-14.81,6.68-14.81,13.35a12.69,12.69,0,0,0,6.06,11.28c-3,2.07-4.37,4.68-4.37,6.83a5.13,5.13,0,0,0,2.38,4.53c-3.76,1.61-6.52,4.76-6.52,8.75,0,6.29,6.21,10.66,16.87,10.66,12.58,0,19.18-5.37,19.18-12,0-13.58-23.86-7.52-23.86-14a5.06,5.06,0,0,1,.92-2.69,15.15,15.15,0,0,0,4.45.62c8.82,0,15-5.29,15-13.43a12.57,12.57,0,0,0-2.56-7.7h1.05v-.05a4.9,4.9,0,0,0,4.38-2.75l1.57-3.15.07-.12ZM421.13,36.52c-4.07,0-6.37-3.15-6.37-6.75,0-4.37,2.68-6.75,6.29-6.75,4.06,0,6.52,3.22,6.52,6.83,0,4.37-2.76,6.67-6.44,6.67m.61,28.54c-6.06,0-9.9-2.22-9.9-5.83,0-2.38,1.77-3.91,2.92-4.75,4.91,1.91,16.19.84,16.19,6.06,0,2.69-3.68,4.53-9.21,4.53"/><path class="cls-8" d="M144,79.31h25.47l-2.07,5.81h-16.6v16H167.2v5.81H150.76v17h19v5.81H144Z"/><path class="cls-8" d="M177.45,93.54h5.66l.84,4.44c3.9-3.21,8-5.35,12.54-5.35,5.74,0,11,3.37,11,12.85v24.24h-6.73v-22c0-5.12-1.22-9.1-6.2-9.1-3.67,0-7.19,2.14-10.4,4.89v26.23h-6.73Z"/><path class="cls-8" d="M212.09,137.36c0-3.75,2.29-7.11,6.65-9.1a5.08,5.08,0,0,1-2.52-4.51c0-1.91.92-4.44,4.05-7a12.58,12.58,0,0,1-5.81-11c0-7.11,5.35-13,13.77-13a16.25,16.25,0,0,1,7,1.38c.38.23.54.23.84-.08a10.4,10.4,0,0,1,7.88-3,13.1,13.1,0,0,1,2.22.23l-1.53,5a11,11,0,0,0-2.22-.23,5.94,5.94,0,0,0-3.21.84,12.85,12.85,0,0,1,3.75,9.1c0,7.88-5.81,13.15-14.3,13.15a14.11,14.11,0,0,1-4.59-.69,5.45,5.45,0,0,0-1.68,3.67c0,7,23.86.69,23.86,14.22,0,6.73-6.58,11.47-18,11.47C218.36,147.84,212.09,143.86,212.09,137.36Zm27.46-.31c0-6.19-10.86-5-17-7-1.68,1.07-4.28,3-4.28,6.12,0,4.13,4.28,6.58,10.63,6.58C235.87,142.79,239.54,140.26,239.54,137.05Zm-3.29-31.13c0-4.51-3.06-7.88-7.65-7.88-4.44,0-7.57,2.91-7.57,7.8,0,4.51,2.83,8,7.65,8C233,113.8,236.26,111.05,236.26,105.93Z"/><path class="cls-8" d="M251.32,75.57H258v45.12c0,2.75.84,3.59,2.68,3.59a8.17,8.17,0,0,0,2.29-.46l1.38,5.28a15.75,15.75,0,0,1-5.58,1.07c-5,0-7.49-2.75-7.49-7.57Z"/><path class="cls-8" d="M268.68,81.76a4.36,4.36,0,0,1,8.72,0A4.33,4.33,0,0,1,273,86.12,4.2,4.2,0,0,1,268.68,81.76Zm.92,11.78h6.73v36.17h-6.73Z"/><path class="cls-8" d="M284.28,122.22a18,18,0,0,0,9.33,2.75c4.05,0,7.34-1.45,7.34-5.2,0-7.34-17-4.89-17-16.9,0-5.74,4.51-10.25,12.7-10.25a26.88,26.88,0,0,1,9.48,1.76v5.81A22.25,22.25,0,0,0,297,98.13c-3.37,0-6.35,1-6.35,4.44,0,7.34,17,4.74,17,17.13,0,7.42-6.27,10.78-13.77,10.78a22.22,22.22,0,0,1-11.7-3.21Z"/><path class="cls-8" d="M313.95,75.57h6.73V97.9c3.59-3.06,7.65-5.28,12.31-5.28,5.66,0,11,3.37,11,12.85v24.24h-6.73v-22c0-5.12-1.3-9.1-6.27-9.1-3.67,0-7.19,2.14-10.32,4.89v26.23h-6.73Z"/></svg>